<svg xmlns="http://www.w3.org/2000/svg" xmlns:xlink="http://www.w3.org/1999/xlink" width="72" height="72" viewBox="0 0 72 72">
    <defs>
        <path id="a" d="M.005.01H40.24v31.938H.005z"/>
        <path id="c" d="M.005.01H40.24v31.938H.005z"/>
        <path id="e" d="M.005.01H40.24v31.938H.005z"/>
    </defs>
    <g fill="none" fill-rule="evenodd" transform="translate(6 6)">
        <ellipse cx="30.349" cy="30" fill="#FFF" rx="30.349" ry="29.651"/>
        <path fill="#60269E" d="M29.907 8.024A3.488 3.488 0 1 1 30.093 15a3.488 3.488 0 0 1-.186-6.975"/>
        <g transform="translate(10.465 14.302)">
            <mask id="b" fill="#fff">
                <use xlink:href="#a"/>
            </mask>
            <path fill="#60269E" fill-rule="nonzero" d="M25.864.01c-.607 2.605-2.99 4.457-5.744 4.463-2.754-.006-5.138-1.86-5.744-4.466-2.113.46-3.697 2.282-3.697 4.466v4.58c.07 1.215 1.106 2.165 2.36 2.165 1.254 0 2.29-.95 2.36-2.165V6.76h9.442v2.29c.07 1.215 1.106 2.165 2.36 2.165 1.254 0 2.29-.95 2.36-2.164V4.473c0-2.184-1.584-4.007-3.697-4.466m12.545 23.29a3.635 3.635 0 0 0-3.598-.065c-1.122.615-1.811 1.773-1.799 3.024.013 1.25.724 2.396 1.859 2.99 1.692.947 3.936.386 4.914-1.259.978-1.642.32-3.743-1.376-4.69" mask="url(#b)"/>
        </g>
        <g transform="translate(10.465 14.302)">
            <mask id="d" fill="#fff">
                <use xlink:href="#c"/>
            </mask>
            <path fill="#60269E" fill-rule="nonzero" d="M36.251 15.476l-4.089-2.291c-1.12-.55-2.488-.155-3.115.9-.627 1.055-.295 2.402.756 3.068l2.045 1.146-4.721 7.931-2.045-1.147c-1.12-.55-2.487-.154-3.115.901-.627 1.055-.295 2.402.756 3.067l4.087 2.29c1.915 1.068 4.337.706 5.832-.872-2.022-1.814-2.483-4.743-1.111-7.06 1.381-2.31 4.226-3.388 6.856-2.596.661-2.045-.227-4.262-2.138-5.337m-30.88 13.77c1.135-.594 1.847-1.74 1.86-2.99.012-1.25-.678-2.409-1.8-3.024a3.635 3.635 0 0 0-3.598.065c-1.695.947-2.354 3.05-1.376 4.69.979 1.645 3.222 2.206 4.915 1.26" mask="url(#d)"/>
        </g>
        <g transform="translate(10.465 14.302)">
            <mask id="f" fill="#fff">
                <use xlink:href="#e"/>
            </mask>
            <path fill="#60269E" d="M17.517 29.051c1.04-.67 1.363-2.008.74-3.057-.624-1.049-1.981-1.447-3.099-.908l-2.045 1.144-4.72-7.93 2.044-1.147c1.051-.666 1.383-2.013.756-3.068-.627-1.055-1.995-1.45-3.115-.9l-4.09 2.291c-1.91 1.075-2.798 3.292-2.137 5.337 2.63-.793 5.477.284 6.858 2.596 1.373 2.317.911 5.246-1.111 7.06 1.495 1.578 3.917 1.94 5.832.871l4.087-2.289" mask="url(#f)"/>
        </g>
    </g>
</svg>
