<svg xmlns="http://www.w3.org/2000/svg" xmlns:xlink="http://www.w3.org/1999/xlink" width="96" height="96" viewBox="0 0 96 96">
    <defs>
        <circle id="a" cx="48" cy="48" r="48"/>
        <path id="b" d="M0 .5h65v72H0z"/>
    </defs>
    <g fill="none" fill-rule="evenodd">
        <use fill="#F6F6F6" xlink:href="#a"/>
        <g transform="translate(20 11)">
            <mask id="c" fill="#fff">
                <use xlink:href="#b"/>
            </mask>
            <path fill="#8D959D" d="M62.429 26.126l-3.485 1.203a1.16 1.16 0 0 0-.773.94l-.15 1.113-.553.724c-.115.152-.191.33-.221.517l-.49 3.054-.98-.186c-.31-.059-.63.009-.889.19-.258.18-.432.455-.481.765l-.324 2.024-.825-1.118a1.161 1.161 0 0 0-.344-.31l1.296-1.903a1.15 1.15 0 0 0 .092-1.134 1.165 1.165 0 0 0-.93-.664l-2.878-.314-1.952-1.266a1.173 1.173 0 0 0-1.084-.1l-3.948 1.625c-.542.223-.832.81-.678 1.372l1.756 6.404-.75-.148a1.171 1.171 0 0 0-.935.216l-2.357 1.79c-.249.188-.41.468-.449.776l-.19 1.522-3.98 2.171a1.16 1.16 0 0 0-.514.57l-.766 1.83-1.536 1.526-1.067.442a1.16 1.16 0 0 0-.49.383l-1.27 1.718-.864.101c-.168.02-.33.076-.475.164l-1.469.9a1.158 1.158 0 0 0-.495.621l-1.317 3.954a1.148 1.148 0 0 0 0 .727l.586 1.757-.95 5.305-1.81 2.156-.883 1.07a1.15 1.15 0 0 0-.137.208l-.366.713-.818.31-9.022-24.21.415-2.17a1.151 1.151 0 0 0-.07-.665l-.952-2.238.055-1.848a1.157 1.157 0 0 0-.776-1.125 1.17 1.17 0 0 0-1.316.39l-2.522 3.281-1.744-.854-.796-1.342.658-.342a1.155 1.155 0 0 0-.027-2.064l-.551-.268-.483-.235 2.946-1.048c.47-.167.78-.613.772-1.109l-.03-1.783a1.15 1.15 0 0 0-.119-.489l-1.81-3.677a1.158 1.158 0 0 0-.339-.411l-.171-.13.562-1.637 1.806.574c.435.138.91.012 1.218-.323l5.103-5.568c.19-.207.299-.477.304-.757l.012-.629 2.715-4.859a1.15 1.15 0 0 0-.16-1.344l-3.226-3.487-.1-4.036a1.155 1.155 0 0 0-.398-.841l-.978-.851 1.334-.793 5.681 2.473c.167.072.348.105.53.096l4.715-.248 1.027.614-2.302 4.692a1.15 1.15 0 0 0 .035 1.08l.194.337-.371.09c-.367.089-.668.35-.807.699a1.15 1.15 0 0 0 .109 1.058l3.012 4.572c.142.215.352.378.598.461l.503.171-.774 2.932a1.155 1.155 0 0 0 .67 1.358l15.81 6.7a1.168 1.168 0 0 0 1.515-.58l1.291-2.777 2.632 2.128c.208.168.468.26.736.26h3.243c.602 0 1.105-.455 1.16-1.05l.145-1.538 4.28-2.719c.135-.086.251-.199.34-.332l.248-.367 3.149-.082 1.627 2.38-.163.762zm.106-4.965a1.168 1.168 0 0 0-.995-.507l-4.389.114c-.378.01-.728.202-.939.514l-.446.665-4.554 2.893a1.156 1.156 0 0 0-.532.867l-.099 1.051h-1.767l-3.475-2.81a1.173 1.173 0 0 0-1.794.412l-1.447 3.112-13.843-5.867.794-3.006a1.155 1.155 0 0 0-.75-1.388l-1.149-.391-1.892-2.872.271-.066c.355-.086.65-.333.793-.666a1.149 1.149 0 0 0-.057-1.03l-.654-1.138 2.5-5.095a1.152 1.152 0 0 0-.446-1.498l-2.247-1.343c-.2-.12-.43-.177-.663-.164l-4.795.251L13.98.597a1.173 1.173 0 0 0-1.066.067L9.692 2.58a1.153 1.153 0 0 0-.17 1.863l1.797 1.563.1 3.964c.006.28.115.548.306.754l2.952 3.192-2.448 4.382c-.092.165-.142.35-.146.54l-.01.48-4.304 4.697-2.182-.694a1.168 1.168 0 0 0-1.459.728l-1.201 3.499c-.162.47-.003.99.394 1.292l.62.47 1.575 3.201.012.698L.772 34.9a1.156 1.156 0 0 0-.12 2.128l1.456.708a1.15 1.15 0 0 0-.293 1.588l1.777 2.628c.113.168.27.303.452.392l2.883 1.412a1.17 1.17 0 0 0 1.442-.336l1.27-1.653.684 1.61-.41 2.142c-.04.207-.022.42.051.618l9.544 25.608a1.177 1.177 0 0 0 1.509.679l2.336-.886c.27-.102.492-.3.623-.556l.513-.999.797-.966 2.002-2.383c.13-.155.216-.34.252-.539l1.056-5.896c.034-.19.02-.384-.041-.566l-.558-1.671 1.063-3.19.889-.544 1.11-.13c.322-.038.613-.206.804-.465l1.377-1.864c.466-.193 1.013-.34 1.387-.687.442-.409.857-.85 1.284-1.275.341-.339.67-.623.863-1.071.216-.503.422-1.01.633-1.514l4.145-2.26c.328-.18.549-.504.595-.873l.203-1.627 1.55-1.177 2.079.412c.395.078.804-.053 1.08-.346a1.15 1.15 0 0 0 .272-1.093l-1.981-7.225 2.432-1 1.67 1.083c.153.1.328.162.51.182l1.235.134-1.383 2.03a1.15 1.15 0 0 0-.05 1.215c.216.383.628.611 1.072.589l.912-.045 2.107 2.858a1.169 1.169 0 0 0 2.091-.502l.574-3.589.979.186c.31.059.63-.009.888-.189s.432-.456.482-.765l.633-3.947.563-.737c.122-.16.2-.348.226-.546l.095-.71 3.429-1.182a1.16 1.16 0 0 0 .757-.853l.402-1.884c.067-.308.003-.63-.175-.89l-2.264-3.31z" mask="url(#c)"/>
        </g>
    </g>
</svg>
