<svg xmlns="http://www.w3.org/2000/svg" width="72" height="72" viewBox="0 0 72 72">
    <g fill="none" fill-rule="evenodd" transform="translate(6 6)">
        <circle cx="30" cy="30" r="30" fill="#FFF"/>
        <path fill="#E8A0B1" fill-rule="nonzero" d="M25.31 32.161c1.113.178 2.47-.094 3.95-.188.276.066.554.111.84.111a3.5 3.5 0 0 0 .866-.118c3.857.202 6.862 1.365 6.862-7.011 0-5.685-3.458-10.303-7.728-10.303-4.268 0-7.726 4.618-7.726 10.303 0 4.573.818 6.35 2.15 6.966.246.125.51.195.786.24zM24.08 21.743c.81 1.196 2.907.94 4.716-.574.46-.386.862-.825 1.186-1.271.042.006.083.01.125.021.177.035.338.101.522.163.163.084.338.15.494.257.163.088.31.21.455.317.132.123.276.238.386.373.115.122.224.257.307.386.094.12.163.249.23.36.069.111.125.212.156.3l.126.274-.046-.3c-.01-.1-.038-.214-.07-.347a4.425 4.425 0 0 0-.337-.951c-.08-.178-.194-.352-.303-.54-.131-.172-.25-.365-.407-.53-.146-.177-.323-.327-.497-.49-.16-.122-.333-.257-.515-.362.077-.172.14-.352.192-.519.647.313 1.31.707 1.836 1.27 1.937 2.066 1.175 4.466 2.668 2.88.22-.234.414-.493.578-.773.052 0 .104-.006.146.004.204.056.334.223.409.358.202.36.25.885.125 1.408-.188.78-.668 1.243-1.056 1.292l-.313.043-.083.33c-.74 2.87-2.739 5.92-4.999 5.92-2.258 0-4.25-3.05-4.998-5.92l-.083-.328-.314-.043c-.38-.057-.866-.52-1.053-1.294-.126-.523-.078-1.048.125-1.408a.726.726 0 0 1 .292-.306zm9.596 13.72c-1.92 1.05-3.35 1.908-3.35 1.908l-.006-.024-.015.01-.016-.01v.017c-.005.005-1.43-.842-3.354-1.9-.929-.513-1.628-1.443-2.237-2.544-2.845 1.236-4.827 4.065-4.827 6.544V44.6h20.87v-5.135c0-2.473-1.99-5.308-4.828-6.544-.603 1.101-1.309 2.031-2.237 2.544z"/>
    </g>
</svg>
