<svg xmlns="http://www.w3.org/2000/svg" xmlns:xlink="http://www.w3.org/1999/xlink" width="96" height="96" viewBox="0 0 96 96">
    <defs>
        <circle id="a" cx="48" cy="48" r="48"/>
    </defs>
    <g fill="none" fill-rule="evenodd">
        <mask id="b" fill="#fff">
            <use xlink:href="#a"/>
        </mask>
        <use fill="#F6F6F6" xlink:href="#a"/>
        <g mask="url(#b)">
            <path fill="#8D959D" fill-rule="nonzero" d="M70.71 57.596l-1.88-2.683a.873.873 0 0 1 1.428-1.002l2.843 4.057a.873.873 0 0 1-.714 1.373h-48.09a.873.873 0 0 1-.715-1.373l2.846-4.062a.872.872 0 1 1 1.428 1.002l-1.883 2.688H70.71zm-40.974-4.26a.872.872 0 0 1 0-1.745h37.547a.872.872 0 0 1 0 1.745H29.736z"/>
            <path fill="#8D959D" fill-rule="nonzero" d="M17.955 53.392h10.88V38.623h-10.88v14.77zm-.872-16.514h12.623c.482 0 .872.39.872.872v16.515c0 .482-.39.873-.872.873H17.083a.872.872 0 0 1-.873-.873V37.75c0-.482.39-.872.873-.872zM68.15 53.392h10.879V38.623h-10.88v14.77zm-.873-16.514H79.9c.481 0 .872.39.872.872v16.515c0 .482-.39.873-.872.873H67.277a.872.872 0 0 1-.872-.873V37.75c0-.482.39-.872.872-.872z"/>
            <path fill="#8D959D" fill-rule="nonzero" d="M72.011 30.992a6.476 6.476 0 0 0-3.907 5.886h10.97a6.51 6.51 0 0 0-3.902-5.909l-1.544-.675-1.617.698zm-.691-1.602l1.964-.848a.872.872 0 0 1 .695.001l1.891.827a8.255 8.255 0 0 1 4.897 8.477.872.872 0 0 1-.866.776H67.277a.872.872 0 0 1-.867-.776 8.221 8.221 0 0 1 4.91-8.457zM39.368 26.788a5.699 5.699 0 0 0-3.307 6.557.873.873 0 0 1-1.697.403 7.444 7.444 0 0 1 4.319-8.565l9.703-4.15a.872.872 0 0 1 .69.002l9.538 4.128a7.473 7.473 0 0 1 4.305 8.585.872.872 0 1 1-1.697-.403 5.727 5.727 0 0 0-3.3-6.58l-9.195-3.979-9.359 4.002z"/>
            <path fill="#8D959D" fill-rule="nonzero" d="M61.295 33.547a.872.872 0 1 1 1.744 0V48.56c0 .482-.39.873-.872.873h-27.05a.872.872 0 0 1-.873-.873V33.547a.872.872 0 1 1 1.745 0v14.14h25.306v-14.14zM21.817 30.992a6.476 6.476 0 0 0-3.907 5.886h10.97a6.51 6.51 0 0 0-3.902-5.909l-1.545-.675-1.616.698zm-.691-1.602l1.964-.848a.872.872 0 0 1 .695.001l1.891.827a8.255 8.255 0 0 1 4.897 8.477.872.872 0 0 1-.867.776H17.083a.872.872 0 0 1-.867-.776 8.221 8.221 0 0 1 4.91-8.457zM19.783 82.518h55.673l-2.493-2.158H22.774l-2.99 2.158zm2.71-3.904h50.795c.21 0 .412.076.57.213l4.51 3.904c.61.528.236 1.532-.571 1.532H17.083c-.847 0-1.197-1.085-.51-1.58l5.41-3.904a.872.872 0 0 1 .51-.165z"/>
            <path fill="#8D959D" fill-rule="nonzero" d="M63.941 82.518h12.984V59.34H63.94v23.177zm-.872-24.922h14.728c.481 0 .872.39.872.873V83.39c0 .482-.39.872-.872.872H63.069a.872.872 0 0 1-.872-.872V58.469c0-.482.39-.873.872-.873zM17.654 82.518h12.984V59.34H17.654v23.177zm-.872-24.922H31.51c.481 0 .872.39.872.873V83.39c0 .482-.39.872-.872.872H16.782a.872.872 0 0 1-.872-.872V58.469c0-.482.39-.873.872-.873zM37.568 74.092l-.1.406-.652 1.241v2.875h4.644v-3l-.637-1.119-.114-.432V59.34h-3.141v14.751zM35.824 58.47c0-.482.39-.873.872-.873h4.885c.482 0 .872.39.872.873v15.363l.637 1.118.115.432v4.105c0 .482-.39.873-.873.873h-6.388a.872.872 0 0 1-.872-.873v-3.963l.1-.406.652-1.241V58.469zM53.484 74.092l-.1.406-.651 1.241v2.875h4.644v-3l-.637-1.119-.115-.432V59.34h-3.14v14.751zM51.74 58.47c0-.482.39-.873.872-.873h4.885c.482 0 .873.39.873.873v15.363l.637 1.118.114.432v4.105c0 .482-.39.873-.872.873H51.86a.872.872 0 0 1-.872-.873v-3.963l.1-.406.65-1.241V58.469z"/>
            <path fill="#8D959D" fill-rule="nonzero" d="M72.717 65.83a2.285 2.285 0 1 0-4.568 0v2.275h4.568V65.83zm-2.284-4.03a4.03 4.03 0 0 1 4.028 4.03v3.148c0 .482-.39.873-.872.873h-6.312a.872.872 0 0 1-.872-.873V65.83a4.03 4.03 0 0 1 4.028-4.03zM26.73 65.83a2.285 2.285 0 1 0-4.567 0v2.275h4.567V65.83zm-2.284-4.03a4.03 4.03 0 0 1 4.028 4.03v3.148c0 .482-.39.873-.872.873H21.29a.872.872 0 0 1-.872-.873V65.83a4.03 4.03 0 0 1 4.028-4.03zM11.977 57.596h12.44a.872.872 0 0 1 0 1.745H9.868c-.777 0-1.166-.94-.616-1.49l4.208-4.204a.872.872 0 0 1 .616-.255h12.836a.872.872 0 0 1 0 1.746H14.438l-2.461 2.458zM70.374 57.596a.872.872 0 0 0 0 1.745H84.92c.777 0 1.166-.94.616-1.49l-4.208-4.204a.872.872 0 0 0-.616-.255H69.605a.872.872 0 0 0 0 1.746h10.747l2.46 2.458H70.375z"/>
            <path stroke="#8D959D" stroke-linecap="round" stroke-linejoin="round" stroke-width=".8" d="M67.395 48.16h13.526"/>
            <path fill="#8D959D" fill-rule="nonzero" d="M33.74 38.209a.872.872 0 1 1-.998-1.432l5.371-3.749a.872.872 0 0 1 .5-.156H58.08l.467.135 5.909 3.749a.873.873 0 0 1-.934 1.474l-5.695-3.613h-18.94l-5.148 3.592z"/>
            <path fill="#8D959D" fill-rule="nonzero" d="M33.74 42.112a.872.872 0 1 1-.998-1.432l5.371-3.748a.872.872 0 0 1 .5-.157H58.08l.467.136 5.909 3.748a.873.873 0 0 1-.934 1.474l-5.695-3.613h-18.94l-5.148 3.592z"/>
            <path fill="#8D959D" fill-rule="nonzero" d="M41.488 38.28a.872.872 0 1 1 1.744 0v7.358a.872.872 0 1 1-1.744 0V38.28zM47.499 38.28a.872.872 0 1 1 1.744 0v7.358a.872.872 0 1 1-1.744 0V38.28zM53.81 38.28a.872.872 0 1 1 1.745 0v7.358a.872.872 0 1 1-1.744 0V38.28zM16.133 49.035a.872.872 0 0 1 0-1.746h13.525a.872.872 0 0 1 0 1.746H16.133z"/>
            <path fill="#8D959D" fill-rule="nonzero" d="M29.91 47.104a.872.872 0 0 1 0-1.745h5.166c.482 0 .872.39.872.872v5.539a.872.872 0 1 1-1.744 0v-4.666H29.91zM67.142 47.104a.872.872 0 0 0 0-1.745H62.19a.872.872 0 0 0-.872.872v5.539a.872.872 0 1 0 1.744 0v-4.666h4.08zM47.26 22.437a.872.872 0 1 1-1.744 0v-3.603c0-.482.39-.873.872-.873h4.208c.481 0 .872.39.872.873v3.603a.872.872 0 1 1-1.745 0v-2.73H47.26v2.73z"/>
            <path fill="#8D959D" fill-rule="nonzero" d="M45.72 14.881a.872.872 0 1 0-1.615.662l.81 1.978c.625 1.525 1.231 2.167 2.611 2.167a.872.872 0 0 0 0-1.746c-.476 0-.612-.143-.997-1.083l-.81-1.978zm3.706 3.061a.872.872 0 0 0 0 1.746c1.435 0 2.027-.68 2.613-2.307l.676-1.873a.873.873 0 0 0-1.641-.592l-.675 1.873c-.364 1.01-.49 1.153-.973 1.153zM22.163 41.38a.872.872 0 1 1-1.745 0v-3.03a.872.872 0 1 1 1.745 0v3.03zm2.463-3.03a.872.872 0 1 1 1.745 0v2.982a.872.872 0 1 1-1.745 0v-2.981zm0 9.915a.872.872 0 1 1 1.745 0v3.598a.872.872 0 1 1-1.745 0v-3.598zm-2.463 3.598a.872.872 0 1 1-1.745 0V48.27a.872.872 0 1 1 1.745 0v3.593zM72.357 41.38a.872.872 0 1 1-1.744 0v-3.03a.872.872 0 1 1 1.744 0v3.03zm2.464-3.03a.872.872 0 1 1 1.744 0v2.982a.872.872 0 1 1-1.744 0v-2.981zm0 9.915a.872.872 0 1 1 1.744 0v3.598a.872.872 0 1 1-1.744 0v-3.598zm-2.464 3.598a.872.872 0 1 1-1.744 0V48.27a.872.872 0 1 1 1.744 0v3.593zM78.669 82.518H95.86V59.34H78.67v23.177zm-.872-24.922h18.935c.482 0 .872.39.872.873V83.39c0 .482-.39.872-.872.872H77.797a.872.872 0 0 1-.872-.872V58.469c0-.482.39-.873.872-.873z"/>
            <path stroke="#8D959D" stroke-linecap="round" stroke-linejoin="round" stroke-width=".8" d="M94.551 58.469h18.925l-3.456-4.204H97.402zM16.782 58.469H-2.154v24.922h18.936zM.028 58.469h-18.925l3.456-4.204h12.618z"/>
            <path fill="#8D959D" fill-rule="nonzero" d="M30.945 38.669a.872.872 0 0 0 0-1.746H16.002a.872.872 0 0 0 0 1.746h14.943z"/>
            <path stroke="#8D959D" stroke-linecap="round" stroke-linejoin="round" stroke-width=".8" d="M111.396 37.796H95.975"/>
            <path fill="#8D959D" fill-rule="nonzero" d="M81.123 38.669a.872.872 0 0 0 0-1.746H66.099a.872.872 0 0 0 0 1.746h15.024zM23.045 29.459a.872.872 0 1 0 1.744 0v-2.243a.872.872 0 1 0-1.744 0v2.243zM73.15 29.346a.872.872 0 1 0 1.744 0v-2.242a.872.872 0 1 0-1.745 0v2.242z"/>
            <g fill="#8D959D">
                <path fill-rule="nonzero" d="M83.366 67.5h2.764V65.34h-2.764V67.5zm-.872-3.904h4.508c.482 0 .872.39.872.872v3.904c0 .482-.39.873-.872.873h-4.508a.872.872 0 0 1-.872-.873v-3.904c0-.482.39-.872.872-.872zM90.88 67.5h2.764V65.34H90.88V67.5zm-.872-3.904h4.508c.482 0 .872.39.872.872v3.904c0 .482-.39.873-.872.873h-4.508a.872.872 0 0 1-.872-.873v-3.904c0-.482.39-.872.872-.872zM86.13 75.677a1.383 1.383 0 1 0-2.764 0v.775h2.764v-.775zm-1.382-3.128c1.727 0 3.126 1.4 3.126 3.128v1.648c0 .482-.39.872-.872.872h-4.508a.872.872 0 0 1-.872-.872v-1.648c0-1.728 1.4-3.128 3.126-3.128z"/>
                <path d="M92.262 73.421a2.254 2.254 0 0 1 2.254 2.255v1.649h-4.508v-1.65a2.254 2.254 0 0 1 2.254-2.254z"/>
            </g>
            <g fill="#8D959D">
                <path fill-rule="nonzero" d="M-.427 67.5h2.765V65.34H-.427V67.5zm-.872-3.904H3.21c.481 0 .872.39.872.872v3.904c0 .482-.39.873-.872.873H-1.3a.872.872 0 0 1-.872-.873v-3.904c0-.482.39-.872.872-.872zM7.088 67.5h2.764V65.34H7.088V67.5zm-.873-3.904h4.509c.482 0 .872.39.872.872v3.904c0 .482-.39.873-.872.873H6.215a.872.872 0 0 1-.872-.873v-3.904c0-.482.39-.872.872-.872z"/>
                <path d="M.956 73.421a2.254 2.254 0 0 1 2.254 2.255v1.649H-1.3v-1.65a2.254 2.254 0 0 1 2.255-2.254z"/>
                <path fill-rule="nonzero" d="M9.852 75.677a1.383 1.383 0 1 0-2.764 0v.775h2.764v-.775zm1.744 0v1.648c0 .482-.39.872-.872.872H6.215a.872.872 0 0 1-.872-.872v-1.648a3.127 3.127 0 1 1 6.253 0z"/>
            </g>
        </g>
    </g>
</svg>
