<svg xmlns="http://www.w3.org/2000/svg" xmlns:xlink="http://www.w3.org/1999/xlink" width="96" height="96" viewBox="0 0 96 96">
    <defs>
        <circle id="a" cx="48" cy="48" r="48"/>
    </defs>
    <g fill="none" fill-rule="evenodd">
        <mask id="b" fill="#fff">
            <use xlink:href="#a"/>
        </mask>
        <use fill="#F6F6F6" xlink:href="#a"/>
        <g fill="#8D959D" fill-rule="nonzero" mask="url(#b)">
            <path d="M55.65 73.262a.873.873 0 1 1 0-1.745h14.175c.482 0 .873.39.873.872v4.73c0 .481-.39.872-.873.872H27.943a.873.873 0 0 1-.872-.873V72.39c0-.482.39-.872.872-.872h13.27a.873.873 0 0 1 0 1.745H28.816v2.984h40.136v-2.984H55.65z"/>
            <path d="M-4.752 78.04a.873.873 0 0 1 0-1.745H101.91a.873.873 0 1 1 0 1.746H-4.752z"/>
            <path d="M59.624 64.48a.873.873 0 0 1 0-1.746h10.258c.482 0 .873.391.873.873v13.511c0 .482-.391.873-.873.873H27.943a.873.873 0 0 1-.872-.873V63.607c0-.482.39-.873.872-.873h10.098a.873.873 0 1 1 0 1.746h-9.225v11.766h40.193V64.48h-9.385z"/>
            <path d="M55 59.75a.873.873 0 1 1 0-1.745h18.26c.481 0 .872.391.872.873v4.729c0 .482-.39.873-.872.873H54.866a.873.873 0 0 1 0-1.746h17.52v-2.983H55.002zm-14.294 2.984a.873.873 0 0 1 0 1.746H23.89a.873.873 0 0 1-.873-.873v-4.729c0-.482.391-.873.873-.873h16.918a.873.873 0 0 1 0 1.746H24.763v2.983h15.943z"/>
            <path d="M28.14 48.942v9.26a.873.873 0 1 1-1.745 0V48.07c0-.482.39-.873.873-.873h43.29c.481 0 .872.39.872.873v10.133a.873.873 0 1 1-1.745 0v-9.26H28.14z"/>
            <path d="M33.545 47.196h30.06v-8.388h-30.06v8.388zm-.873-10.133h31.806c.482 0 .873.39.873.872V48.07c0 .482-.391.873-.873.873H32.672a.873.873 0 0 1-.873-.873V37.935c0-.482.39-.872.873-.872z"/>
            <path d="M38.949 37.063H58.2v-4.335H38.949v4.335zm-.873-6.08h20.998c.482 0 .872.39.872.872v6.08c0 .482-.39.873-.872.873H38.076a.873.873 0 0 1-.873-.873v-6.08c0-.482.391-.873.873-.873z"/>
            <path d="M41.65 30.982h13.792v-4.334H41.651v4.334zm-.872-6.08h15.537c.482 0 .873.391.873.873v6.08c0 .482-.391.873-.873.873H40.778a.873.873 0 0 1-.873-.873v-6.08c0-.482.391-.873.873-.873z"/>
            <path d="M41.65 30.982h1.303v-4.334h-1.302v4.334zm-.872-6.08h3.048c.482 0 .873.391.873.873v6.08c0 .482-.39.873-.873.873h-3.048a.873.873 0 0 1-.873-.873v-6.08c0-.482.391-.873.873-.873z"/>
            <path d="M38.729 36.408h1.303v-3.5h-1.303v3.5zm-.873-5.245h3.048c.482 0 .873.39.873.873v5.245c0 .482-.39.873-.873.873h-3.048a.873.873 0 0 1-.872-.873v-5.245c0-.482.39-.873.872-.873zM33.72 47.112h1.303v-7.943H33.72v7.943zm-.872-9.688h3.048c.482 0 .872.39.872.873v9.688c0 .482-.39.872-.872.872h-3.048a.873.873 0 0 1-.873-.872v-9.688c0-.482.39-.873.873-.873zM62.103 47.112h1.303v-7.943h-1.303v7.943zm-.873-9.688h3.048c.482 0 .873.39.873.873v9.688c0 .482-.39.872-.873.872H61.23a.873.873 0 0 1-.873-.872v-9.688c0-.482.391-.873.873-.873zM68.364 57.547h1.302v-7.943h-1.302v7.943zm-.873-9.688h3.048c.482 0 .873.39.873.873v9.687c0 .482-.39.873-.873.873h-3.048a.873.873 0 0 1-.873-.873v-9.687c0-.482.391-.873.873-.873zM28.294 57.547h1.303v-7.943h-1.303v7.943zm-.872-9.688h3.048c.482 0 .872.39.872.873v9.687c0 .482-.39.873-.872.873h-3.048a.873.873 0 0 1-.873-.873v-9.687c0-.482.39-.873.873-.873zM56.677 36.408h1.302v-3.5h-1.302v3.5zm-.873-5.245h3.048c.482 0 .873.39.873.873v5.245c0 .482-.39.873-.873.873h-3.048a.873.873 0 0 1-.873-.873v-5.245c0-.482.391-.873.873-.873z"/>
            <path d="M54.172 30.982h1.303v-4.334h-1.303v4.334zm-.872-6.08h3.048c.482 0 .873.391.873.873v6.08c0 .482-.391.873-.873.873H53.3a.873.873 0 0 1-.873-.873v-6.08c0-.482.39-.873.873-.873z"/>
            <path d="M42.723 19.05c-.742 1.159-1.117 2.884-1.097 5.177h13.861c.086-2.38-.232-4.109-.914-5.178-.754-1.183-2.769-2.893-6.007-5.06-3.07 2.08-5.026 3.785-5.843 5.061zm6.32-6.84c3.719 2.45 6.038 4.39 7.002 5.9.996 1.564 1.358 3.91 1.14 7.05a.873.873 0 0 1-.87.812H40.778a.873.873 0 0 1-.872-.832c-.142-3.04.293-5.384 1.347-7.031 1.025-1.6 3.291-3.545 6.827-5.897a.873.873 0 0 1 .963-.002z"/>
            <path d="M59.074 24.227a.873.873 0 1 1 0 1.745H38.076a.873.873 0 1 1 0-1.745h20.998zM44.464 45.503c-.16.164-.317.334-.47.509-.284.326-.579.965-.848 1.902a.873.873 0 0 1-1.678-.482c.334-1.161.726-2.012 1.211-2.568.175-.2.353-.393.536-.58 1.148-1.175 4.471-3.52 4.158-3.26.192-.16.332-.3.428-.43a.873.873 0 0 1 1.514.207c.068.176.27.39.668.674.16.115 1.78 1.132 2.33 1.54.764.57 1.4 1.178 1.941 1.9.438.585.816 1.379 1.15 2.388a.873.873 0 1 1-1.657.548c-.28-.845-.58-1.476-.89-1.89-.431-.576-.948-1.07-1.587-1.545-.479-.356-2.08-1.362-2.302-1.52a5.661 5.661 0 0 1-.579-.468c-.557.382-3.054 2.183-3.925 3.075zM46.39 36.82a7.258 7.258 0 0 0-.272.3c-.135.158-.295.514-.447 1.052a.873.873 0 1 1-1.68-.473c.214-.76.47-1.325.8-1.713.11-.128.223-.252.338-.373.72-.753 2.754-2.217 2.543-2.038.098-.083.165-.152.206-.208a.873.873 0 0 1 1.52.206c.014.036.096.124.29.265.084.062 1.07.693 1.415.956.488.37.897.77 1.245 1.243.288.394.532.915.744 1.57a.873.873 0 0 1-1.66.538c-.16-.492-.328-.852-.492-1.075-.24-.328-.53-.61-.893-.886-.276-.21-1.241-.829-1.388-.936a4.71 4.71 0 0 1-.165-.125c-.551.403-1.679 1.253-2.104 1.697zM53.806 58.852a.873.873 0 1 1 1.745 0v18.324c0 .482-.39.872-.873.872H41.322a.873.873 0 0 1-.873-.872V58.852a.873.873 0 1 1 1.745 0v17.45h11.612v-17.45z"/>
            <path d="M44.057 54.892l-.028.013a3.158 3.158 0 0 0-1.835 2.868v1a.873.873 0 1 1-1.745 0v-1a4.904 4.904 0 0 1 2.849-4.453l.027-.013a13.319 13.319 0 0 0 3.86-2.698l.431-.434a.873.873 0 0 1 1.245.008l.516.532a13.319 13.319 0 0 0 3.548 2.613l.012.006a4.767 4.767 0 0 1 2.614 4.253v1.185a.873.873 0 1 1-1.745 0v-1.185c0-1.14-.641-2.181-1.657-2.696a15.085 15.085 0 0 1-3.924-2.857 15.064 15.064 0 0 1-4.168 2.858zM50.174 64.487a2.258 2.258 0 0 0-4.515 0v11.858h4.515V64.487zm-2.257-4.003a4.003 4.003 0 0 1 4.003 4.003v12.73c0 .482-.391.873-.873.873h-6.26a.873.873 0 0 1-.874-.873v-12.73a4.003 4.003 0 0 1 4.004-4.003z"/>
        </g>
    </g>
</svg>
