<svg xmlns="http://www.w3.org/2000/svg" xmlns:xlink="http://www.w3.org/1999/xlink" width="96" height="96" viewBox="0 0 96 96">
    <defs>
        <circle id="a" cx="48" cy="48" r="48"/>
    </defs>
    <g fill="none" fill-rule="evenodd">
        <mask id="b" fill="#fff">
            <use xlink:href="#a"/>
        </mask>
        <use fill="#F6F6F6" xlink:href="#a"/>
        <g fill="#8D959D" fill-rule="nonzero" mask="url(#b)">
            <path d="M26.065 45.833a.87.87 0 0 1-.872.866.87.87 0 0 1-.872-.866v-6.879a.87.87 0 0 1 .872-.867.87.87 0 0 1 .872.867v6.879zm4.204-6.879a.87.87 0 0 1 .872-.867.87.87 0 0 1 .872.867v6.832a.87.87 0 0 1-.872.867.87.87 0 0 1-.872-.867v-6.832zm0 18.09a.87.87 0 0 1 .872-.866.87.87 0 0 1 .872.867v20.963a.87.87 0 0 1-.872.866h-5.948a.87.87 0 0 1-.872-.866v-20.87a.87.87 0 0 1 .872-.867.87.87 0 0 1 .872.866v20.004h4.204V57.045zM26.065 31.581a.87.87 0 0 1-.872.867.87.87 0 0 1-.872-.867v-6.878a.87.87 0 0 1 .872-.867.87.87 0 0 1 .872.867v6.878zm4.204-6.878a.87.87 0 0 1 .872-.867.87.87 0 0 1 .872.867v6.832a.87.87 0 0 1-.872.866.87.87 0 0 1-.872-.866v-6.832zM64.9 31.58a.87.87 0 0 1-.872.867.87.87 0 0 1-.872-.867v-6.878a.87.87 0 0 1 .872-.867.87.87 0 0 1 .872.867v6.878zm4.204-6.878a.87.87 0 0 1 .872-.867.87.87 0 0 1 .872.867v6.832a.87.87 0 0 1-.872.866.87.87 0 0 1-.872-.866v-6.832zM69.105 56.952a.87.87 0 0 1 .872-.867.87.87 0 0 1 .872.867V77.89a.87.87 0 0 1-.872.867h-5.948a.87.87 0 0 1-.872-.867V57.443a.87.87 0 0 1 .872-.866.87.87 0 0 1 .872.866v19.58h4.204V56.953zm-4.204-11.087a.87.87 0 0 1-.872.866.87.87 0 0 1-.872-.866v-7.271a.87.87 0 0 1 .872-.867h5.948a.87.87 0 0 1 .872.867v7.27a.87.87 0 0 1-.872.867.87.87 0 0 1-.872-.866V39.46h-4.204v6.405z"/>
            <path d="M33.697 46.76a.87.87 0 0 1-.872-.867.87.87 0 0 1 .872-.867h27.446a.87.87 0 0 1 .872.867.87.87 0 0 1-.872.867H33.697zm32.609 10.737a.87.87 0 0 1 .872-.867.87.87 0 0 1 .872.867V78.08a.87.87 0 0 1-.872.866H27.992a.87.87 0 0 1-.872-.866V57.497a.87.87 0 0 1 .872-.867.87.87 0 0 1 .872.867v19.717h37.442V57.497z"/>
            <path d="M-5.07 78.933a.87.87 0 0 1-.872-.867.87.87 0 0 1 .872-.866h105.948a.87.87 0 0 1 .872.866.87.87 0 0 1-.872.867H-5.07zM23.616 53.888a2.269 2.269 0 0 0 2.275 2.261h4.551a2.269 2.269 0 0 0 2.276-2.261V46.76h-9.102v7.128zm-.872-8.862H33.59a.87.87 0 0 1 .872.867v7.995c0 2.206-1.8 3.995-4.02 3.995h-4.55c-2.22 0-4.02-1.789-4.02-3.995v-7.995a.87.87 0 0 1 .872-.867zM23.616 35.465a2.269 2.269 0 0 0 2.275 2.262h4.551a2.269 2.269 0 0 0 2.276-2.262v-2.957h-9.102v2.957zm-.872-4.69H33.59a.87.87 0 0 1 .872.867v3.823c0 2.207-1.8 3.995-4.02 3.995h-4.55c-2.22 0-4.02-1.788-4.02-3.995v-3.823a.87.87 0 0 1 .872-.867zM62.102 35.465a2.269 2.269 0 0 0 2.276 2.262h4.55a2.269 2.269 0 0 0 2.276-2.262v-2.957h-9.102v2.957zm-.872-4.69h10.846a.87.87 0 0 1 .872.867v3.823c0 2.207-1.8 3.995-4.02 3.995h-4.55c-2.22 0-4.02-1.788-4.02-3.995v-3.823a.87.87 0 0 1 .872-.867zM62.102 53.888a2.269 2.269 0 0 0 2.276 2.261h4.55a2.269 2.269 0 0 0 2.276-2.261V46.76h-9.102v7.128zm-.872-8.862h10.846a.87.87 0 0 1 .872.867v7.995c0 2.206-1.8 3.995-4.02 3.995h-4.55c-2.22 0-4.02-1.789-4.02-3.995v-7.995a.87.87 0 0 1 .872-.867z"/>
            <path d="M34.02 35.08a.87.87 0 0 1-.871-.866.87.87 0 0 1 .872-.867h27.278a.87.87 0 0 1 .872.867.87.87 0 0 1-.872.867H34.02zm30.01 3.481a.87.87 0 0 1 .871.867.87.87 0 0 1-.872.866H31.141a.87.87 0 0 1-.872-.866.87.87 0 0 1 .872-.867h32.888z"/>
            <path d="M36.389 34.332a.87.87 0 0 1 .872-.866.87.87 0 0 1 .872.866V39.4a.87.87 0 0 1-.872.867.87.87 0 0 1-.872-.867v-5.068zM39.887 34.332a.87.87 0 0 1 .872-.866.87.87 0 0 1 .872.866V39.4a.87.87 0 0 1-.872.867.87.87 0 0 1-.872-.867v-5.068zM43.386 34.332a.87.87 0 0 1 .872-.866.87.87 0 0 1 .872.866V39.4a.87.87 0 0 1-.872.867.87.87 0 0 1-.872-.867v-5.068zM46.885 34.332a.87.87 0 0 1 .872-.866.87.87 0 0 1 .872.866V39.4a.87.87 0 0 1-.872.867.87.87 0 0 1-.872-.867v-5.068zM50.734 34.332a.87.87 0 0 1 .872-.866.87.87 0 0 1 .872.866V39.4a.87.87 0 0 1-.872.867.87.87 0 0 1-.872-.867v-5.068zM54.582 34.332a.87.87 0 0 1 .872-.866.87.87 0 0 1 .872.866V39.4a.87.87 0 0 1-.872.867.87.87 0 0 1-.872-.867v-5.068zM58.08 34.332a.87.87 0 0 1 .873-.866.87.87 0 0 1 .872.866V39.4a.87.87 0 0 1-.872.867.87.87 0 0 1-.872-.867v-5.068zM25.18 54.62a.87.87 0 0 1-.873-.867.87.87 0 0 1 .872-.866h6.308a.87.87 0 0 1 .872.866.87.87 0 0 1-.872.867h-6.308zM63.666 54.62a.87.87 0 0 1-.872-.867.87.87 0 0 1 .872-.866h6.307a.87.87 0 0 1 .872.866.87.87 0 0 1-.872.867h-6.307zM25.18 36.198a.87.87 0 0 1-.873-.867.87.87 0 0 1 .872-.867h6.308a.87.87 0 0 1 .872.867.87.87 0 0 1-.872.867h-6.308zM63.666 36.198a.87.87 0 0 1-.872-.867.87.87 0 0 1 .872-.867h6.307a.87.87 0 0 1 .872.867.87.87 0 0 1-.872.867h-6.307zM24.632 49.098a.87.87 0 0 1 .872-.867.87.87 0 0 1 .872.867v1.444a.87.87 0 0 1-.872.867.87.87 0 0 1-.872-.867v-1.444zM27.431 49.098a.87.87 0 0 1 .872-.867.87.87 0 0 1 .872.867v1.444a.87.87 0 0 1-.872.867.87.87 0 0 1-.872-.867v-1.444zM30.23 49.098a.87.87 0 0 1 .872-.867.87.87 0 0 1 .872.867v1.444a.87.87 0 0 1-.872.867.87.87 0 0 1-.872-.867v-1.444zM27.431 27.547a.87.87 0 0 1 .872-.867.87.87 0 0 1 .872.867v1.444a.87.87 0 0 1-.872.867.87.87 0 0 1-.872-.867v-1.444zM65.917 27.547a.87.87 0 0 1 .872-.867.87.87 0 0 1 .872.867v1.444a.87.87 0 0 1-.872.867.87.87 0 0 1-.872-.867v-1.444zM63.118 49.098a.87.87 0 0 1 .872-.867.87.87 0 0 1 .872.867v1.444a.87.87 0 0 1-.872.867.87.87 0 0 1-.872-.867v-1.444zM65.917 49.098a.87.87 0 0 1 .872-.867.87.87 0 0 1 .872.867v1.444a.87.87 0 0 1-.872.867.87.87 0 0 1-.872-.867v-1.444zM68.716 49.098a.87.87 0 0 1 .872-.867.87.87 0 0 1 .872.867v1.444a.87.87 0 0 1-.872.867.87.87 0 0 1-.872-.867v-1.444zM24.674 19.52c-.314.556-.485 1.599-.47 3.097a1.223 1.223 0 0 0 1.227 1.206h5.504c.667 0 1.212-.53 1.226-1.193.031-1.446-.137-2.497-.47-3.134-.437-.835-1.547-1.7-3.345-2.542-2.026.943-3.254 1.825-3.672 2.566zm4.027-4.311c2.334 1.037 3.852 2.178 4.537 3.487.492.942.703 2.26.667 3.971a2.962 2.962 0 0 1-2.97 2.89h-5.504a2.962 2.962 0 0 1-2.97-2.922c-.02-1.774.196-3.085.692-3.963.673-1.194 2.28-2.316 4.834-3.462a.877.877 0 0 1 .714-.001zM63.51 19.52c-.313.556-.485 1.599-.47 3.097a1.223 1.223 0 0 0 1.227 1.206h5.504c.667 0 1.212-.53 1.226-1.193.031-1.446-.137-2.497-.47-3.134-.437-.835-1.547-1.7-3.345-2.542-2.026.943-3.254 1.825-3.672 2.566zm4.028-4.311c2.334 1.037 3.852 2.178 4.536 3.487.493.942.704 2.26.667 3.971a2.962 2.962 0 0 1-2.97 2.89h-5.504a2.962 2.962 0 0 1-2.97-2.922c-.019-1.774.197-3.085.692-3.963.674-1.194 2.28-2.316 4.834-3.462a.877.877 0 0 1 .715-.001zM38.31 53.369h2.455V50.93h-2.454v2.438zm-.871-4.171h4.198a.87.87 0 0 1 .872.866v4.171a.87.87 0 0 1-.872.867h-4.198a.87.87 0 0 1-.872-.867v-4.17a.87.87 0 0 1 .872-.867zM45.658 53.369h2.454V50.93h-2.454v2.438zm-.872-4.171h4.198a.87.87 0 0 1 .872.866v4.171a.87.87 0 0 1-.872.867h-4.198a.87.87 0 0 1-.872-.867v-4.17a.87.87 0 0 1 .872-.867zM53.005 53.369h2.455V50.93h-2.455v2.438zm-.872-4.171h4.199a.87.87 0 0 1 .872.866v4.171a.87.87 0 0 1-.872.867h-4.199a.87.87 0 0 1-.872-.867v-4.17a.87.87 0 0 1 .872-.867zM40.76 68.587v8.504h12.6v-8.596c0-3.95-2.519-7.453-6.253-8.743-3.787 1.291-6.347 4.836-6.347 8.835zm6.61-10.574c4.604 1.442 7.735 5.685 7.735 10.482v9.462a.87.87 0 0 1-.872.867H39.888a.87.87 0 0 1-.872-.867v-9.37c0-4.85 3.174-9.135 7.834-10.575a.877.877 0 0 1 .52.001z"/>
        </g>
    </g>
</svg>
