<svg xmlns="http://www.w3.org/2000/svg" xmlns:xlink="http://www.w3.org/1999/xlink" width="72" height="72" viewBox="0 0 72 72">
    <defs>
        <path id="a" d="M.004 0h25.71v30H.004z"/>
    </defs>
    <g fill="none" fill-rule="evenodd" transform="translate(6 6)">
        <circle cx="30" cy="30" r="30" fill="#FFF"/>
        <g transform="translate(17 15)">
            <mask id="b" fill="#fff">
                <use xlink:href="#a"/>
            </mask>
            <path fill="#D24A19" d="M12.857 9.285c-3.173 0-5.754 2.564-5.754 5.715 0 3.152 2.581 5.717 5.754 5.717 3.172 0 5.753-2.565 5.753-5.717 0-3.151-2.58-5.715-5.753-5.715zm3.416 4.639l-4.122 4.095a.887.887 0 0 1-1.253 0l-1.575-1.565a.876.876 0 0 1 0-1.245.89.89 0 0 1 1.253 0l.948.943 3.496-3.473a.89.89 0 0 1 1.253 0c.346.344.346.901 0 1.245z" mask="url(#b)"/>
            <path fill="#D24A19" d="M25.684 8.14v-.024a31.034 31.034 0 0 1-.028-.932c-.025-1.654-1.348-3.022-3.013-3.115-3.472-.192-6.158-1.317-8.453-3.54l-.02-.018a1.942 1.942 0 0 0-2.626 0l-.02.019C9.23 2.752 6.545 3.877 3.073 4.07 1.407 4.162.083 5.53.06 7.184c-.005.337-.014.642-.027.932l-.002.055c-.067 3.517-.151 7.894 1.323 11.867.81 2.185 2.038 4.085 3.648 5.646 1.834 1.778 4.236 3.19 7.139 4.195a2.223 2.223 0 0 0 .717.121 2.18 2.18 0 0 0 .719-.122c2.9-1.007 5.3-2.42 7.131-4.197 1.61-1.562 2.837-3.461 3.648-5.647 1.48-3.985 1.396-8.37 1.33-11.894zM12.857 22.477c-4.15 0-7.526-3.354-7.526-7.477 0-4.122 3.376-7.476 7.526-7.476s7.525 3.354 7.525 7.476c0 4.123-3.376 7.477-7.525 7.477z" mask="url(#b)"/>
        </g>
    </g>
</svg>
