<svg xmlns="http://www.w3.org/2000/svg" xmlns:xlink="http://www.w3.org/1999/xlink" width="72" height="72" viewBox="0 0 72 72">
    <defs>
        <path id="a" d="M.004.007h29.379V26.08H.004z"/>
        <path id="c" d="M.004.007h29.379V26.08H.004z"/>
    </defs>
    <g fill="none" fill-rule="evenodd" transform="translate(6 6)">
        <circle cx="30" cy="30" r="30" fill="#FFF"/>
        <g transform="translate(15.652 16.565)">
            <mask id="b" fill="#fff">
                <use xlink:href="#a"/>
            </mask>
            <path fill="#FF671D" d="M18.214 23.874h-1.993V5.202h8.385l-3.548 5.772a.638.638 0 0 0-.017.631.62.62 0 0 0 .531.33c.212 0 .41-.11.52-.294l3.08-5.004 3.082 5.004a.6.6 0 0 0 .842.196.636.636 0 0 0 .193-.863l-3.553-5.772h.045a.96.96 0 0 0 .949-.97.975.975 0 0 0-.276-.685.947.947 0 0 0-.673-.286h-6.975a3.107 3.107 0 0 0-1.657-1.241C17.055.885 16.122.012 15 .007c-1.127 0-2.053.884-2.15 2.013-.675.21-1.259.648-1.656 1.24H4.22a.96.96 0 0 0-.949.973c0 .534.424.97.95.97h.042l-3.548 5.77a.638.638 0 0 0-.017.633.62.62 0 0 0 .533.329.609.609 0 0 0 .519-.294L4.83 6.637l3.077 5.004c.18.294.557.38.844.196a.636.636 0 0 0 .193-.863L5.39 5.202h8.385v18.672h-1.988a2.149 2.149 0 0 0-1.53.65c-.405.413-.631.973-.628 1.556h10.74c0-1.217-.964-2.206-2.156-2.206h.002z" mask="url(#b)"/>
        </g>
        <g transform="translate(15.652 16.565)">
            <mask id="d" fill="#fff">
                <use xlink:href="#c"/>
            </mask>
            <path fill="#FF671D" d="M9.328 12.6h-9a.326.326 0 0 0-.233.098.335.335 0 0 0-.095.237c0 2.724 2.164 4.941 4.828 4.941 2.676-.017 4.834-2.227 4.826-4.941a.335.335 0 0 0-.095-.236.326.326 0 0 0-.231-.099z" mask="url(#d)"/>
        </g>
        <path fill="#FF671D" d="M45.04 29.304h-8.515a.302.302 0 0 0-.218.098.34.34 0 0 0-.09.233c-.007 2.685 2.034 4.87 4.565 4.887 2.517 0 4.566-2.193 4.566-4.887a.34.34 0 0 0-.09-.233.302.302 0 0 0-.218-.098z"/>
    </g>
</svg>
