<?xml version="1.0" encoding="UTF-8"?>
<svg width="24px" height="24px" viewBox="0 0 24 24" version="1.1" xmlns="http://www.w3.org/2000/svg" xmlns:xlink="http://www.w3.org/1999/xlink">
    <!-- Generator: Sketch 57.1 (83088) - https://sketch.com -->
    <title>Glyphs/Search Bar/Applaud-clicked</title>
    <desc>Created with Sketch.</desc>
    <g id="Glyphs/Search-Bar/Applaud-clicked" stroke="none" stroke-width="1" fill="none" fill-rule="evenodd">
        <g id="clap" transform="translate(1.000000, 3.000000)" fill="#60269E" fill-rule="nonzero">
            <path d="M10.9380901,0.416793755 C11.1215732,0.233310639 11.3662173,0.172149601 11.580281,0.172149601 C11.8249251,0.172149601 12.0389887,0.294471678 12.1918913,0.447374274 C12.2836329,0.569696351 12.3447939,0.722598947 12.3447939,0.875501543 L7.29900826,6.0436093 L7.14610566,4.17819762 L10.9380901,0.416793755 Z M1.42754857,14.7590573 C0.173747277,13.505256 -0.284960512,11.7010054 0.173747277,10.0190768 L0.173747277,10.0190768 C0.510132988,8.79585603 0.663035585,7.51147422 0.663035585,6.22709241 L0.632455065,1.79291712 C0.632455065,1.60943401 0.785357662,1.42595089 0.968840777,1.42595089 C1.76393428,1.33420933 2.46728622,1.9152392 2.55902778,2.67975218 L2.62018882,3.41368464 L2.65076934,6.62463916 C2.65076934,7.78669889 2.49786674,8.94875862 2.25322259,9.98849628 C2.25322259,10.0190768 2.22264207,10.0190768 2.22264207,10.0496573 C1.61103168,12.1902937 2.22264207,14.4838326 3.78224855,16.0434391 C3.93515114,16.1963417 4.11863426,16.3492443 4.27153686,16.5021469 C3.20121868,16.1351806 2.22264207,15.5541508 1.42754857,14.7590573 Z M20.9073393,9.2239833 L15.0052991,15.156604 C12.1613108,18.0005923 7.5130719,18.0005923 4.66908361,15.156604 C3.44586284,13.9333833 2.95657453,12.1291326 3.41528232,10.4472041 C3.41528232,10.4472041 3.41528232,10.4166235 3.41528232,10.4166235 C3.75166803,9.16282226 3.90457062,7.90902097 3.90457062,6.62463916 L3.90457062,6.62463916 C3.90457062,6.62463916 3.90457062,6.62463916 3.90457062,6.62463916 L3.90457062,3.41368464 L3.90457062,3.41368464 L3.90457062,3.32194308 L3.90457062,2.19046387 C3.90457062,2.00698076 4.05747322,1.82349764 4.24095634,1.82349764 C5.03604984,1.73175608 5.73940178,2.31278595 5.83114334,3.07729893 L6.04520697,6.16593137 C6.10636801,6.62463916 6.4121732,7.02218591 6.84030047,7.17508851 C7.29900826,7.3279911 7.75771605,7.20566903 8.09410176,6.89986383 L14.1490446,0.844921024 C14.3325277,0.661437908 14.4854303,0.569696351 14.7912355,0.60027687 C15.0358796,0.60027687 15.2499433,0.722598947 15.4028459,0.875501543 C15.6780705,1.18130674 15.64749,1.79291712 15.3111043,2.12930283 L15.3111043,2.12930283 C15.3111043,2.12930283 15.3111043,2.12930283 15.3111043,2.12930283 L10.815768,6.65521968 C10.5711238,6.89986383 10.5711238,7.29741058 10.815768,7.54205474 C10.9380901,7.66437682 11.0909926,7.72553785 11.2744758,7.72553785 C11.4273784,7.72553785 11.6108615,7.66437682 11.7331836,7.54205474 L16.2591004,3.01613789 C16.2591004,3.01613789 16.2591004,3.01613789 16.2591004,3.01613789 L17.4517406,1.82349764 C17.7881264,1.48711193 18.3385757,1.48711193 18.6749614,1.82349764 C18.827864,1.97640024 18.9196056,2.19046387 18.9196056,2.43510802 C18.9196056,2.67975218 18.827864,2.89381581 18.6749614,3.04671841 L12.9258238,8.76527551 C12.6811796,9.00991966 12.6811796,9.40746641 12.9258238,9.65211057 C13.0481459,9.77443264 13.2010485,9.83559368 13.3845316,9.83559368 C13.5680147,9.83559368 13.7209173,9.77443264 13.8432394,9.65211057 L17.0541939,6.44115605 L18.766703,4.72864697 C19.1030887,4.39226126 19.653538,4.39226126 19.9899237,4.72864697 C20.3263095,5.06503268 20.3263095,5.61548203 19.9899237,5.95186774 L18.827864,7.11392747 C18.827864,7.11392747 18.827864,7.11392747 18.827864,7.11392747 L17.9716095,7.93960149 L15.0358796,10.8753313 C14.7912355,11.1199755 14.7912355,11.5175222 15.0358796,11.7621664 C15.1582017,11.8844885 15.3111043,11.9456495 15.4945874,11.9456495 C15.6780705,11.9456495 15.8309731,11.8844885 15.9532952,11.7621664 L19.7146991,8.00076253 C20.0510848,7.66437682 20.6015341,7.66437682 20.9379198,8.00076253 C21.0908224,8.15366512 21.182564,8.36772876 21.182564,8.61237291 C21.182564,8.85701707 21.0908224,9.0710807 20.9073393,9.2239833 Z" id="Shape"></path>
        </g>
    </g>
</svg>