<svg xmlns="http://www.w3.org/2000/svg" width="23" height="18" viewBox="0 0 23 18">
    <path fill="#333" fill-rule="evenodd" d="M1.972.492a1.056 1.056 0 0 0-.922.539 1.1 1.1 0 0 0 0 1.083c.19.335.542.54.922.539h19.056c.38.002.731-.204.922-.539a1.1 1.1 0 0 0 0-1.083 1.056 1.056 0 0 0-.922-.54H1.972zm0 7.554a1.07 1.07 0 0 0-1.06 1.08c0 .598.475 1.081 1.06 1.081h19.056a1.07 1.07 0 0 0 1.06-1.08 1.07 1.07 0 0 0-1.06-1.08H1.972zm0 7.555a1.054 1.054 0 0 0-.936.533 1.098 1.098 0 0 0 0 1.093c.194.337.552.541.936.533h19.056c.384.008.742-.196.936-.533a1.098 1.098 0 0 0 0-1.093 1.054 1.054 0 0 0-.936-.533H1.972z"/>
</svg>
