<?xml version="1.0" encoding="UTF-8"?>
<svg width="34px" height="48px" viewBox="0 0 34 48" version="1.1" xmlns="http://www.w3.org/2000/svg" xmlns:xlink="http://www.w3.org/1999/xlink">
    <!-- Generator: Sketch 54.1 (76490) - https://sketchapp.com -->
    <title>Group 7</title>
    <desc>Created with Sketch.</desc>
    <g id="Page-1" stroke="none" stroke-width="1" fill="none" fill-rule="evenodd">
        <g id="KK_home_20_sep_19" transform="translate(-95.000000, -15.000000)" fill="#F45933">
            <g id="Navbar">
                <g id="Group-24" transform="translate(95.000000, 15.000000)">
                    <g id="Group-7">
                        <path d="M4.00007249,9.40685735 C3.12724505,9.40685735 2.41723907,10.1214653 2.41723907,10.9999278 C2.41723907,11.8783903 3.12724505,12.5931427 4.00007249,12.5931427 C4.87289994,12.5931427 5.58290592,11.8783903 5.58290592,10.9999278 C5.58290592,10.1214653 4.87289994,9.40685735 4.00007249,9.40685735 M4.00007249,15 C1.79451583,15 0,13.20554 0,10.9999278 C0,8.79445998 1.79451583,7 4.00007249,7 C6.20562916,7 8,8.79445998 8,10.9999278 C8,13.20554 6.20562916,15 4.00007249,15" id="Fill-20"></path>
                        <path d="M8.31641963,20.2474798 C8.32364276,20.7539449 8.40045791,21.2647668 8.53950306,21.7646969 C8.74216727,21.556665 8.95524945,21.3581633 9.17805507,21.1704172 L22.9788072,9.54499986 C24.6767972,8.11450811 26.774976,7.45378893 28.735082,7.73316164 C29.6792278,7.86753828 30.5444748,8.21253363 31.2833171,8.737787 C31.9043669,7.10879358 31.8278296,5.38640364 31.0116165,4.144611 L30.796034,3.81649783 C30.2423537,2.97443145 29.4147503,2.45312633 28.4022627,2.30894713 C27.1050172,2.12406013 25.6783112,2.59335727 24.4881625,3.59580428 L10.6874103,15.2213578 C9.24222976,16.4387802 8.34447869,18.2845189 8.31641963,20.074846 L8.31655854,20.074846 C8.31614182,20.1031644 8.31586401,20.1314829 8.31586401,20.1598014 C8.31586401,20.1890729 8.31614182,20.2183444 8.31655854,20.2474798 L8.31641963,20.2474798 Z M18.0477744,24.0028099 L30.8261766,34.7615184 C31.0387032,34.9405511 31.2412285,35.1282972 31.4334747,35.3239397 C32.1498142,33.2647233 31.3047086,30.4870614 29.3170992,28.8127312 L23.6037464,23.9999509 L29.3170992,19.1873066 C31.3045697,17.5129764 32.1496753,14.735723 31.4336136,12.6765065 C31.2399783,12.8731022 31.037453,13.0604398 30.8264544,13.2382472 L18.0477744,24.0028099 Z M9.64283537,23.9981809 C9.94690114,24.4049868 10.2972227,24.7793898 10.6875492,25.1083199 L24.4881625,36.7338734 C25.6783112,37.7363204 27.1046005,38.2054814 28.4022627,38.0205944 C29.058039,37.9271978 29.6364446,37.675599 30.1128931,37.2809102 C29.8728631,36.9952747 29.6071354,36.7276106 29.3170992,36.4830914 L14.4944138,24.0033545 L29.3170992,11.5169464 C29.6040795,11.275014 29.8706406,11.0084391 30.1141432,10.7200807 C29.637417,10.3248473 29.0585947,10.07284 28.4022627,9.97930734 C27.1046005,9.79523721 25.6781723,10.2637175 24.4881625,11.2661645 L10.6874103,22.8918541 C10.2966671,23.2209203 9.94648442,23.5938257 9.64283537,23.9981809 L9.64283537,23.9981809 Z M8.53769728,26.2349325 C8.4090701,26.7000091 8.33433854,27.1762498 8.31878104,27.6526265 L8.31641963,27.7635859 C8.31530838,27.8371051 8.31586401,27.9194737 8.31836432,28.0018424 C8.37142651,29.7878128 9.25709272,31.573647 10.6874103,32.7785439 L24.4881625,44.4042336 C25.6783112,45.4066806 27.1046005,45.8747524 28.4022627,45.6910907 C29.4146114,45.5469115 30.2423537,45.0256064 30.796034,44.18354 L31.0116165,43.8554269 C31.8371363,42.5996111 31.8782525,40.8664656 31.2755383,39.2675606 C30.5385018,39.7899549 29.6761718,40.132908 28.7352209,40.2667401 C26.7748371,40.5455682 24.6769361,39.8855297 22.9788072,38.4551741 L9.17805507,26.8296206 C8.9541382,26.6410577 8.7405004,26.4424199 8.53769728,26.2349325 L8.53769728,26.2349325 Z M27.8420538,48 C26.1519815,48.0001361 24.4212097,47.3406423 22.9786683,46.1253982 L9.17805507,34.500117 C7.26212123,32.8860997 6.07530628,30.4814794 6.00349175,28.0676012 C6.00001909,27.9516043 5.99918565,27.8362882 6.00099144,27.7213805 L6.00390847,27.5909521 C6.04433018,26.357056 6.37326017,25.1287419 6.93958093,24.0078474 C6.32853236,22.8059457 5.99710206,21.4826012 6.00001909,20.1553086 C6.00085253,17.6606954 7.18238905,15.1810584 9.17805507,13.4999209 L22.9788072,1.87450351 C24.6767972,0.444011759 26.7753927,-0.216435131 28.7352209,0.0628014329 C30.4057074,0.300649447 31.8289408,1.19717445 32.7426661,2.58723067 L32.9582486,2.9152077 C34.3564789,5.04222518 34.3357818,8.03676844 32.9649161,10.5957789 C34.9454413,13.6220443 33.9876828,18.2457171 30.8264544,20.9087435 L27.1566904,23.9999509 L30.8264544,27.0912943 C33.9892107,29.7556822 34.9462748,34.3824864 32.9618602,37.4088879 C34.2963324,39.9142567 34.385927,42.9128843 32.9582486,45.0848302 L32.7426661,45.4128072 C31.8289408,46.8028634 30.4055685,47.6993884 28.735082,47.9372364 C28.4400452,47.9791696 28.1415356,48 27.8420538,48 L27.8420538,48 Z" id="Fill-22"></path>
                    </g>
                </g>
            </g>
        </g>
    </g>
</svg>