<?xml version="1.0" encoding="UTF-8"?>
<svg width="24px" height="24px" viewBox="0 0 24 24" version="1.1" xmlns="http://www.w3.org/2000/svg" xmlns:xlink="http://www.w3.org/1999/xlink">
    <!-- Generator: Sketch 57.1 (83088) - https://sketch.com -->
    <title>q&amp;a</title>
    <desc>Created with Sketch.</desc>
    <g id="q&amp;a" stroke="none" stroke-width="1" fill="none" fill-rule="evenodd">
        <g id="question" transform="translate(1.000000, 2.000000)" fill="#333333" fill-rule="nonzero">
            <path d="M20.6068841,11.8221264 L20.6068841,16.2326652 C20.6068841,18.4714096 18.762036,20.2898551 16.4863007,20.2898551 L4.12058341,20.2898551 C1.84685864,20.2898551 0,18.4733893 0,16.2326652 L0,4.05718982 C0,1.81844544 1.84484803,0 4.12058341,0 L16.852588,0 L16.852588,0.00026160317 L16.8289552,2.02898559 L16.852588,2.02898559 L16.852588,2.0287239 C16.8447319,2.028898 16.836854,2.02898551 16.8289552,2.02898559 L4.8014404,2.02898551 C3.28776487,2.02898551 2.06068841,3.23575391 2.06068841,4.72757209 L2.06068841,15.562283 C2.06068841,17.0526712 3.28631256,18.2608696 4.8014404,18.2608696 L15.8054436,18.2608696 C17.3191192,18.2608696 18.5461957,17.0541012 18.5461957,15.562283 L18.5461957,11.8221264 C18.5536915,11.2681163 19.0121153,10.821256 19.5765399,10.821256 C20.1409644,10.821256 20.5993882,11.2681163 20.6068841,11.8221264 L20.6068841,11.8221264 Z M21.6271181,3.05343289 C21.0906188,2.52518746 20.2200067,2.5259506 19.6818798,3.05579852 L9.97250671,12.6157967 C9.43468057,13.1453486 9.42986452,13.99918 9.97010414,14.5311082 C10.5066034,15.0593536 11.3772156,15.0585905 11.9153424,14.5287425 L21.6247155,4.9687444 C22.1625417,4.43919249 22.1673577,3.58536114 21.6271181,3.05343289 Z" id="Shape"></path>
            <circle id="Oval" cx="16.7391098" cy="1.01449275" r="1.01449275"></circle>
        </g>
    </g>
</svg>