<?xml version="1.0" encoding="UTF-8"?>
<svg width="24px" height="24px" viewBox="0 0 24 24" version="1.1" xmlns="http://www.w3.org/2000/svg" xmlns:xlink="http://www.w3.org/1999/xlink">
    <!-- Generator: Sketch 57.1 (83088) - https://sketch.com -->
    <title>Glyphs/Search Bar/Respond</title>
    <desc>Created with Sketch.</desc>
    <g id="Glyphs/Search-Bar/Respond" stroke="none" stroke-width="1" fill="none" fill-rule="evenodd">
        <g id="respond" transform="translate(1.000000, 2.000000)" fill="#333333" fill-rule="nonzero">
            <path d="M8.23589744,0 L13.8205128,0 C18.3333333,0 22,3.72307692 22,8.23589744 C22,12.6923077 18.3333333,16.3589744 13.8769231,16.4153846 L9.02564103,19.4615385 C8.74358974,19.6307692 8.40512821,19.5179487 8.23589744,19.2923077 C8.17948718,19.1794872 8.12307692,19.0102564 8.12307692,18.8974359 L8.23589744,16.4153846 C3.61025641,16.1897436 0,13.0307692 0,8.23589744 C0,3.72307692 3.72307692,0 8.23589744,0 Z M13.8205128,1.12820513 L8.23589744,1.12820513 C4.34358974,1.12820513 1.12820513,4.34358974 1.12820513,8.23589744 C1.12820513,12.6358974 4.62564103,15.2871795 8.85641026,15.2871795 L8.85641026,15.2871795 L8.85641026,15.2871795 C9.19487179,15.2871795 9.42051282,15.5692308 9.42051282,15.9076923 L9.30769231,17.9384615 L13.3692308,15.4 C13.4820513,15.3435897 13.5948718,15.2871795 13.7076923,15.2871795 C17.6,15.2871795 20.8717949,12.1282051 20.8717949,8.23589744 C20.8717949,4.34358974 17.7128205,1.12820513 13.8205128,1.12820513 Z" id="Shape"></path>
            <path d="M11,6.20512821 C12.1282051,6.20512821 13.0307692,7.10769231 13.0307692,8.23589744 C13.0307692,9.30769231 12.1282051,10.2102564 11,10.2102564 C9.92820513,10.2102564 9.02564103,9.30769231 9.02564103,8.23589744 C9.02564103,7.10769231 9.92820513,6.20512821 11,6.20512821 Z M11,7.33333333 C10.5487179,7.33333333 10.1538462,7.72820513 10.1538462,8.23589744 C10.1538462,8.68717949 10.5487179,9.08205128 11,9.08205128 C11.5076923,9.08205128 11.9025641,8.68717949 11.9025641,8.23589744 C11.9025641,7.72820513 11.5076923,7.33333333 11,7.33333333 Z" id="Shape"></path>
            <path d="M6.20512821,6.20512821 C7.27692308,6.20512821 8.17948718,7.10769231 8.17948718,8.23589744 C8.17948718,9.30769231 7.27692308,10.2102564 6.20512821,10.2102564 C5.07692308,10.2102564 4.17435897,9.30769231 4.17435897,8.23589744 C4.17435897,7.10769231 5.07692308,6.20512821 6.20512821,6.20512821 Z M6.20512821,7.33333333 C5.6974359,7.33333333 5.3025641,7.72820513 5.3025641,8.23589744 C5.3025641,8.68717949 5.6974359,9.08205128 6.20512821,9.08205128 C6.65641026,9.08205128 7.05128205,8.68717949 7.05128205,8.23589744 C7.05128205,7.72820513 6.65641026,7.33333333 6.20512821,7.33333333 Z" id="Shape"></path>
            <path d="M15.8512821,6.20512821 C16.9230769,6.20512821 17.825641,7.10769231 17.825641,8.23589744 C17.825641,9.30769231 16.9230769,10.2102564 15.8512821,10.2102564 C14.7230769,10.2102564 13.8205128,9.30769231 13.8205128,8.23589744 C13.8205128,7.10769231 14.7230769,6.20512821 15.8512821,6.20512821 Z M15.8512821,7.33333333 C15.3435897,7.33333333 14.9487179,7.72820513 14.9487179,8.23589744 C14.9487179,8.68717949 15.3435897,9.08205128 15.8512821,9.08205128 C16.3025641,9.08205128 16.6974359,8.68717949 16.6974359,8.23589744 C16.6974359,7.72820513 16.3025641,7.33333333 15.8512821,7.33333333 Z" id="Shape"></path>
        </g>
    </g>
</svg>