<?xml version="1.0" encoding="UTF-8"?>
<svg width="24px" height="24px" viewBox="0 0 24 24" version="1.1" xmlns="http://www.w3.org/2000/svg" xmlns:xlink="http://www.w3.org/1999/xlink">
    <!-- Generator: Sketch 57.1 (83088) - https://sketch.com -->
    <title>ttkk</title>
    <desc>Created with Sketch.</desc>
    <g id="ttkk" stroke="none" stroke-width="1" fill="none" fill-rule="evenodd">
        <g id="message" transform="translate(2.000000, 3.000000)" fill="#333333" fill-rule="nonzero" stroke="#333333" stroke-width="0.5">
            <path d="M11.9825,13.75 L15,13.75 C17.0710678,13.75 18.75,12.0710678 18.75,10 L18.75,5 C18.75,2.92893219 17.0710678,1.25 15,1.25 L5,1.25 C2.92893219,1.25 1.25,2.92893219 1.25,5 L1.25,10 C1.25,12.0710678 2.92893219,13.75 5,13.75 L8.0175,13.75 L10,15.7325 L11.9825,13.75 Z M5,0 L15,0 C17.7614237,0 20,2.23857625 20,5 L20,10 C20,12.7614237 17.7614237,15 15,15 L12.5,15 L10,17.5 L7.5,15 L5,15 C2.23857625,15 0,12.7614237 0,10 L0,5 C0,2.23857625 2.23857625,0 5,0 Z" id="Shape"></path>
        </g>
    </g>
</svg>