<svg xmlns="http://www.w3.org/2000/svg" width="128" height="96" viewBox="0 0 128 96">
    <g fill="#FF671D" fill-rule="nonzero">
        <path d="M25.874 49.99c-8.78 0-15.923-7.143-15.923-15.922 0-8.78 7.144-15.922 15.923-15.922s15.922 7.143 15.922 15.922c0 8.78-7.143 15.922-15.922 15.922zm0-27.864c-6.586 0-11.942 5.356-11.942 11.942S19.288 46.01 25.874 46.01s11.941-5.356 11.941-11.942-5.355-11.942-11.941-11.942z"/>
        <path d="M25.874 40.039a5.978 5.978 0 0 1-5.971-5.971 5.978 5.978 0 0 1 5.97-5.97 5.978 5.978 0 0 1 5.972 5.97 5.978 5.978 0 0 1-5.971 5.97zm0-7.961a1.991 1.991 0 1 0 .001 3.982 1.991 1.991 0 0 0-.001-3.982z"/>
        <path d="M33.815 47.502a1.989 1.989 0 0 1-1.984-1.866 5.978 5.978 0 0 0-5.96-5.597 5.977 5.977 0 0 0-5.958 5.597c-.066 1.098-1.035 1.946-2.11 1.864a1.991 1.991 0 0 1-1.865-2.11c.323-5.232 4.685-9.33 9.932-9.33 5.246 0 9.609 4.1 9.931 9.33a1.992 1.992 0 0 1-1.865 2.11l-.121.002zM101.504 85.815c-8.779 0-15.922-7.143-15.922-15.922s7.143-15.922 15.922-15.922c8.78 0 15.923 7.143 15.923 15.922 0 8.78-7.143 15.922-15.923 15.922zm0-27.864c-6.585 0-11.941 5.356-11.941 11.942s5.356 11.942 11.941 11.942c6.586 0 11.942-5.356 11.942-11.942s-5.356-11.942-11.942-11.942z"/>
        <path d="M101.504 75.864a5.978 5.978 0 0 1-5.97-5.97 5.978 5.978 0 0 1 5.97-5.972 5.978 5.978 0 0 1 5.971 5.971 5.978 5.978 0 0 1-5.97 5.97zm0-7.961a1.991 1.991 0 1 0 .002 3.982 1.991 1.991 0 0 0-.002-3.982z"/>
        <path d="M109.45 83.328a1.989 1.989 0 0 1-1.985-1.867 5.978 5.978 0 0 0-5.959-5.597 5.977 5.977 0 0 0-5.959 5.597c-.067 1.096-1.009 1.91-2.11 1.865a1.991 1.991 0 0 1-1.864-2.11c.322-5.233 4.685-9.33 9.931-9.33 5.247 0 9.61 4.1 9.932 9.33a1.992 1.992 0 0 1-1.865 2.11l-.121.002zM125.388 12.175H1.99c-1.1 0-1.99-.89-1.99-1.99 0-1.101.89-1.99 1.99-1.99h123.398c1.1 0 1.99.889 1.99 1.99 0 1.1-.89 1.99-1.99 1.99z"/>
        <path d="M121.407 95.767H5.971A5.978 5.978 0 0 1 0 89.796V6.204A5.978 5.978 0 0 1 5.97.234h115.437a5.978 5.978 0 0 1 5.971 5.97v83.592a5.978 5.978 0 0 1-5.97 5.97zM5.971 4.214c-1.099 0-1.99.891-1.99 1.99v83.592c0 1.099.891 1.99 1.99 1.99h115.436c1.099 0 1.99-.891 1.99-1.99V6.204c0-1.099-.891-1.99-1.99-1.99H5.971z"/>
        <g>
            <path d="M115.436 48.004H51.747c-1.1 0-1.99-.89-1.99-1.99v-9.132l-1.407-1.407a1.988 1.988 0 0 1 0-2.814l1.407-1.407v-9.128c0-1.1.89-1.99 1.99-1.99h63.69c1.1 0 1.99.89 1.99 1.99v23.888c0 1.1-.89 1.99-1.99 1.99zm-61.698-3.98h59.708V24.116H53.738v7.96c0 .53-.21 1.036-.584 1.408l-.583.583.583.583c.375.372.584.878.584 1.407v7.965z"/>
            <path d="M67.67 32.078h-7.962c-1.1 0-1.99-.89-1.99-1.99 0-1.101.89-1.99 1.99-1.99h7.962c1.1 0 1.99.889 1.99 1.99 0 1.1-.89 1.99-1.99 1.99zM107.475 32.08H75.631c-1.1 0-1.99-.89-1.99-1.99 0-1.101.89-1.99 1.99-1.99h31.844c1.1 0 1.99.889 1.99 1.99 0 1.1-.89 1.99-1.99 1.99zM87.572 40.039H59.708c-1.1 0-1.99-.89-1.99-1.99 0-1.101.89-1.99 1.99-1.99h27.864c1.101 0 1.99.889 1.99 1.99 0 1.1-.889 1.99-1.99 1.99zM107.475 40.04H95.534c-1.101 0-1.99-.889-1.99-1.99 0-1.1.889-1.99 1.99-1.99h11.941c1.1 0 1.99.89 1.99 1.99 0 1.101-.89 1.99-1.99 1.99z"/>
        </g>
        <g>
            <path d="M75.633 83.827h-63.69c-1.1 0-1.99-.89-1.99-1.99V57.949c0-1.1.89-1.99 1.99-1.99h63.69c1.1 0 1.99.89 1.99 1.99v9.128l1.407 1.407a1.988 1.988 0 0 1 0 2.814l-1.407 1.407v9.132c0 1.1-.89 1.99-1.99 1.99zm-61.699-3.98h59.708V71.88c0-.529.21-1.035.584-1.407l.583-.583-.583-.583a1.985 1.985 0 0 1-.584-1.407V59.94H13.934v19.906z"/>
            <path d="M67.672 67.9H61.7c-1.1 0-1.99-.889-1.99-1.99 0-1.1.89-1.99 1.99-1.99h5.97c1.101 0 1.99.89 1.99 1.99 0 1.101-.889 1.99-1.99 1.99zM53.74 67.903H19.905c-1.1 0-1.99-.89-1.99-1.99 0-1.101.89-1.99 1.99-1.99H53.74c1.1 0 1.99.889 1.99 1.99 0 1.1-.89 1.99-1.99 1.99zM67.672 75.862H45.778c-1.1 0-1.99-.89-1.99-1.99 0-1.101.89-1.99 1.99-1.99h21.894c1.1 0 1.99.889 1.99 1.99 0 1.1-.89 1.99-1.99 1.99zM37.817 75.864H19.905c-1.1 0-1.99-.89-1.99-1.99 0-1.101.89-1.99 1.99-1.99h17.912c1.101 0 1.99.889 1.99 1.99 0 1.1-.889 1.99-1.99 1.99z"/>
        </g>
    </g>
</svg>
