<svg xmlns="http://www.w3.org/2000/svg" width="100" height="76" viewBox="0 0 100 76">
    <path fill="#FF671D" fill-rule="nonzero" d="M100 56.147c0 5.997-2.034 10.805-6.102 14.424C89.83 74.191 84.771 76 78.721 76c-7.719 0-13.769-2.43-18.15-7.29C56.191 63.85 54 57.388 54 49.322c0-8.272 1.304-15.303 3.912-21.093 2.607-5.79 5.737-10.599 9.387-14.425 3.651-3.826 7.458-6.824 11.422-8.996C82.685 2.637 86.127 1.034 89.048 0L99.06 16.751c-4.172 1.654-7.719 4.291-10.64 7.91-2.92 3.62-4.589 7.497-5.006 11.633 4.172 0 7.98 1.81 11.422 5.428C98.279 45.342 100 50.15 100 56.147zm-54 0c0 5.997-2.034 10.805-6.102 14.424C35.83 74.191 30.771 76 24.721 76c-7.719 0-13.769-2.43-18.15-7.29C2.191 63.85 0 57.388 0 49.322 0 41.05 1.304 34.02 3.912 28.23c2.607-5.79 5.737-10.599 9.387-14.425 3.651-3.826 7.458-6.824 11.422-8.996C28.685 2.637 32.127 1.034 35.048 0L45.06 16.751c-4.172 1.654-7.719 4.291-10.64 7.91-2.92 3.62-4.589 7.497-5.006 11.633 4.172 0 7.98 1.81 11.422 5.428C44.279 45.342 46 50.15 46 56.147z"/>
</svg>
