<svg xmlns="http://www.w3.org/2000/svg" width="116" height="128" viewBox="0 0 116 128">
    <g fill="#FF671D" fill-rule="nonzero">
        <path d="M80 120H36c-7.718 0-14-6.282-14-14 0-1.106.894-2 2-2 1.106 0 2 .894 2 2 0 5.514 4.486 10 10 10h44c5.514 0 10-4.486 10-10 0-1.106.894-2 2-2 1.106 0 2 .894 2 2 0 7.718-6.282 14-14 14zM16.06 64a2.007 2.007 0 0 1-2.01-2c0-1.106.884-2 1.988-2h.022a2 2 0 1 1 0 4zM52.06 10a2.007 2.007 0 0 1-2.01-2c0-1.106.884-2 1.988-2h.022a2 2 0 1 1 0 4zM64 10h-6c-1.106 0-2-.894-2-2 0-1.106.894-2 2-2h6c1.106 0 2 .894 2 2 0 1.106-.894 2-2 2zM92 14.004c-1.106 0-2-.894-2-2 0-4.412-3.588-8-8-8-1.106 0-2-.894-2-2 0-1.106.894-2 2-2 6.618 0 12 5.382 12 12 0 1.106-.894 2-2 2zM24 14c-1.106 0-2-.894-2-2 0-6.618 5.382-12 12-12 1.106 0 2 .894 2 2 0 1.106-.894 2-2 2-4.412 0-8 3.588-8 8 0 1.106-.894 2-2 2z"/>
        <path d="M82 4H34c-1.106 0-2-.894-2-2 0-1.106.894-2 2-2h48c1.106 0 2 .894 2 2 0 1.106-.894 2-2 2zM92 16.004H24c-1.106 0-2-.894-2-2 0-1.106.894-2 2-2h68c1.106 0 2 .894 2 2 0 1.106-.894 2-2 2zM80 128H36c-7.718 0-14-6.282-14-14V86c0-1.106.894-2 2-2 1.106 0 2 .894 2 2v28c0 5.514 4.486 10 10 10h44c5.514 0 10-4.486 10-10V64c0-1.106.894-2 2-2 1.106 0 2 .894 2 2v50c0 7.718-6.282 14-14 14z"/>
        <path d="M92 104H24c-1.106 0-2-.894-2-2 0-1.106.894-2 2-2h68c1.106 0 2 .894 2 2 0 1.106-.894 2-2 2zM58 116c-3.308 0-6-2.692-6-6s2.692-6 6-6 6 2.692 6 6-2.692 6-6 6zm0-8a2 2 0 1 0 .001 4.001A2 2 0 0 0 58 108zM50 88H2c-1.106 0-2-.894-2-2V50c0-1.106.894-2 2-2h48c1.106 0 2 .894 2 2v36c0 1.106-.894 2-2 2zM4 84h44V52H4v32zM114 66H66c-1.106 0-2-.894-2-2V28c0-1.106.894-2 2-2h48c1.106 0 2 .894 2 2v36c0 1.106-.894 2-2 2zm-46-4h44V30H68v32z"/>
        <path d="M24 52c-1.106 0-2-.894-2-2V12c0-1.106.894-2 2-2 1.106 0 2 .894 2 2v38c0 1.106-.894 2-2 2zM92 30c-1.106 0-2-.894-2-2V12.004c0-1.106.894-2 2-2 1.106 0 2 .894 2 2V28c0 1.106-.894 2-2 2zM86 56c-1.106 0-2-.894-2-2V38c0-1.106.894-2 2-2 1.106 0 2 .894 2 2v16c0 1.106-.894 2-2 2z"/>
        <path d="M86.002 56a2 2 0 0 1-.994-3.736l14-8a2 2 0 0 1 1.984 3.472l-14 8c-.312.18-.654.264-.99.264z"/>
        <path d="M99.998 48c-.336 0-.678-.084-.99-.264l-14-8a2 2 0 0 1 1.984-3.472l14 8A2 2 0 0 1 99.998 48z"/>
        <g>
            <path d="M21.998 88a1.996 1.996 0 0 1-1.598-3.198l12-16a2 2 0 0 1 2.798-.4 1.996 1.996 0 0 1 .4 2.798l-12 16c-.39.524-.99.8-1.6.8z"/>
            <path d="M46.002 88c-.61 0-1.208-.276-1.602-.8l-12-16a1.996 1.996 0 0 1 .4-2.798 1.995 1.995 0 0 1 2.798.4l12 16A1.996 1.996 0 0 1 46.002 88zM9.998 88a2.002 2.002 0 0 1-1.56-3.25l8-10a2.006 2.006 0 0 1 2.812-.312 2.002 2.002 0 0 1 .312 2.812l-8 10c-.396.492-.976.75-1.564.75z"/>
            <path d="M23.936 85.418a2.002 2.002 0 0 1-1.564-.75l-5.934-7.418a2.003 2.003 0 0 1 .312-2.812 2.007 2.007 0 0 1 2.812.312l5.934 7.418c.69.864.548 2.122-.312 2.812-.37.296-.81.438-1.248.438z"/>
        </g>
    </g>
</svg>
