<svg xmlns="http://www.w3.org/2000/svg" width="104" height="128" viewBox="0 0 104 128">
    <g fill="#FF671D" fill-rule="nonzero">
        <path d="M51.657 8.258c-23.927 0-43.392 19.45-43.392 43.355 0 23.905 19.465 43.355 43.392 43.355 23.928 0 43.392-19.45 43.392-43.355 0-23.905-19.464-43.355-43.392-43.355zM13.823 41.29h19.238v24.775H15.193a38.924 38.924 0 0 1-2.795-14.452c0-3.578.522-7.028 1.425-10.323zm44.033 0h18.597v4.13h-16.53v4.128h16.53v4.13h-16.53v4.128h16.53v4.13h-16.53v4.129h16.53v2.064c0 1.14-.928 2.065-2.067 2.065H50.08l-7.83-3.913a2.073 2.073 0 0 0-.923-.216h-4.133V41.29h4.133c.547 0 1.074-.216 1.46-.605l8.266-8.258c.388-.386.605-.91.605-1.46V20.646a4.135 4.135 0 0 1 4.133 4.13v14.45c0 1.142.925 2.065 2.066 2.065zM51.657 90.84c-14.923 0-27.924-8.366-34.563-20.645h15.967v4.129h4.132v-4.13h3.645l7.83 3.913c.284.142.603.217.923.217h24.795c3.418 0 6.2-2.78 6.2-6.194V39.226a2.065 2.065 0 0 0-2.067-2.065H59.922V24.774c0-4.554-3.707-8.258-8.265-8.258h-2.066c-1.14 0-2.066.923-2.066 2.065v11.532l-7.055 7.048h-3.277v-4.129h-4.132v4.13H15.193C20.97 22.67 35.121 12.386 51.657 12.386c21.649 0 39.26 17.596 39.26 39.226s-17.611 39.226-39.26 39.226z"/>
        <path d="M103.314 51.613C103.314 23.153 80.141 0 51.657 0 23.173 0 0 23.154 0 51.613c0 20.315 11.81 37.919 28.928 46.334v27.988a2.067 2.067 0 0 0 3.128 1.77l19.601-11.75 19.599 11.75a2.06 2.06 0 0 0 2.083.027 2.067 2.067 0 0 0 1.047-1.797V97.947c17.117-8.415 28.928-26.02 28.928-46.334zm-33.06 70.674l-17.533-10.51a2.077 2.077 0 0 0-2.126 0l-17.534 10.51V99.751a51.393 51.393 0 0 0 18.596 3.475 51.393 51.393 0 0 0 18.597-3.475v22.536zm-18.597-23.19c-26.204 0-47.524-21.3-47.524-47.484S25.453 4.129 51.657 4.129c26.205 0 47.525 21.3 47.525 47.484s-21.32 47.484-47.525 47.484z"/>
    </g>
</svg>
