<?xml version="1.0" encoding="UTF-8"?>
<svg width="24px" height="25px" viewBox="0 0 24 25" version="1.1" xmlns="http://www.w3.org/2000/svg" xmlns:xlink="http://www.w3.org/1999/xlink">
    <!-- Generator: Sketch 57.1 (83088) - https://sketch.com -->
    <title>bookmark</title>
    <desc>Created with Sketch.</desc>
    <g id="bookmark" stroke="none" stroke-width="1" fill="none" fill-rule="evenodd">
        <g fill="#333333" fill-rule="nonzero" id="Shape_35" stroke="#333333" stroke-width="0.4">
            <path d="M18.520944,3.00149448 L5.50041507,3.00149448 C5.24637254,2.98148284 5.02340602,3.16933213 5,3.4230854 L5,21.9101181 C4.99873212,22.196902 5.11508984,22.471669 5.32193741,22.6703162 C5.55249017,22.8844713 5.85630076,23.0022054 6.1709573,22.9993322 C6.46481473,22.9956926 6.75027983,22.900829 6.98786789,22.7278627 L11.9598051,18.6020264 L17.0518394,22.754968 C17.2825714,22.912809 17.5554188,22.9976561 17.8349726,22.9984982 C18.1375479,23.0141106 18.4337053,22.9074808 18.6568838,22.7025738 C18.8800623,22.4976668 19.0115393,22.2116722 19.0217657,21.9088671 L19.0217657,3.4230854 C18.998372,3.16915664 18.7751426,2.9812425 18.520944,3.00149448 L18.520944,3.00149448 Z M18.0205394,21.9092841 C18.0233583,21.9848679 17.9876894,22.0567325 17.925785,22.1001919 C17.8638807,22.1436513 17.7841728,22.1527859 17.7140415,22.1244581 L12.3059183,17.7104721 C12.0994269,17.5506309 11.8106962,17.5516621 11.6053518,17.7129741 L6.32316371,22.0994379 C6.22558481,22.1657415 6.14093302,22.1786686 6.07713143,22.116118 C6.025007,22.0607899 5.99800341,21.9864169 6.00248773,21.9105351 L6.00248773,3.84467632 L18.0209564,3.84467632 L18.0205394,21.9092841 Z"></path>
        </g>
    </g>
</svg>