<?xml version="1.0" encoding="UTF-8"?>
<svg width="24px" height="24px" viewBox="0 0 24 24" version="1.1" xmlns="http://www.w3.org/2000/svg" xmlns:xlink="http://www.w3.org/1999/xlink">
    <!-- Generator: Sketch 57.1 (83088) - https://sketch.com -->
    <title>company</title>
    <desc>Created with Sketch.</desc>
    <g id="company" stroke="none" stroke-width="1" fill="none" fill-rule="evenodd">
        <g fill="#333333" fill-rule="nonzero" id="Shape" stroke="#FDFBF8" stroke-width="0.825">
            <path d="M20.8,6.44444444 L16.4,6.44444444 L16.4,4.22222222 L14.2,2 L9.8,2 L7.6,4.22222222 L7.6,6.44444444 L3.2,6.44444444 C1.99,6.44444444 1,7.44444444 1,8.66666667 L1,14.2222222 C1,15.0555556 1.44,15.7555556 2.1,16.1444444 L2.1,19.7777778 C2.1,21.0111111 3.079,22 4.3,22 L19.7,22 C20.921,22 21.9,21.0111111 21.9,19.7777778 L21.9,16.1333333 C22.549,15.7444444 23,15.0333333 23,14.2222222 L23,8.66666667 C23,7.44444444 22.01,6.44444444 20.8,6.44444444 Z M9.8,4.22222222 L14.2,4.22222222 L14.2,6.44444444 L9.8,6.44444444 L9.8,4.22222222 Z M3.2,8.66666667 L20.8,8.66666667 L20.8,14.2222222 L15.3,14.2222222 L15.3,10.8888889 L8.7,10.8888889 L8.7,14.2222222 L3.2,14.2222222 L3.2,8.66666667 Z M13.1,15.3333333 L10.9,15.3333333 L10.9,13.1111111 L13.1,13.1111111 L13.1,15.3333333 Z M19.7,19.7777778 L4.3,19.7777778 L4.3,16.4444444 L8.7,16.4444444 L8.7,17.5555556 L15.3,17.5555556 L15.3,16.4444444 L19.7,16.4444444 L19.7,19.7777778 Z"></path>
        </g>
    </g>
</svg>