<?xml version="1.0" encoding="UTF-8"?>
<svg width="24px" height="24px" viewBox="0 0 24 24" version="1.1" xmlns="http://www.w3.org/2000/svg" xmlns:xlink="http://www.w3.org/1999/xlink">
    <!-- Generator: Sketch 57.1 (83088) - https://sketch.com -->
    <title>home-filled</title>
    <desc>Created with Sketch.</desc>
    <g id="home-filled" stroke="none" stroke-width="1" fill="none" fill-rule="evenodd">
        <g fill="#FF671D" fill-rule="nonzero" id="Combined-Shape">
            <path d="M12.5592817,2.10384982 L12.6490827,2.17167012 L21.9996445,10.310996 C22.2832334,10.5592138 22.3119073,10.9903284 22.0636894,11.2739173 C21.8402934,11.5291473 21.468751,11.5778962 21.1899401,11.4041428 L21.1007681,11.3379623 L19.95,11.337 L19.9502063,21.1177375 C19.9502063,21.4562164 19.7007596,21.7364339 19.375671,21.7845852 L19.276049,21.7918948 L4.94121754,21.7918948 C4.60273864,21.7918948 4.32252113,21.5424481 4.27436984,21.2173596 L4.26706024,21.1177375 L4.267,11.34 L3.12324001,11.3402094 C2.96496505,11.4757754 2.75500376,11.5301386 2.55384742,11.4919994 L2.45428305,11.465169 C2.22498517,11.384334 2.05623016,11.1873104 2.01158641,10.9483151 C1.97332034,10.743462 2.03122108,10.5344485 2.16482874,10.3793116 L2.23784676,10.3065016 L11.7502063,2.17167012 C11.9776825,1.96820924 12.3087789,1.94560247 12.5592817,2.10384982 Z M10.1412175,9.85256899 C8.68054338,9.85256899 7.50975687,10.8952656 7.21986923,12.441333 C6.80863327,14.5536926 8.04683552,17.3514454 11.7412175,18.841333 C11.989027,18.9460964 12.2686889,18.9460964 12.5164984,18.841333 C16.1088458,17.3567293 17.3696037,14.6786751 17.0501336,12.6079543 L17.0198692,12.4368387 C16.7030153,10.8795353 15.5614423,9.8750409 14.1097569,9.8750409 C13.4079356,9.88898287 12.7239001,10.098318 12.134476,10.4795353 C11.5412332,10.0893689 10.8509916,9.87225792 10.1412175,9.85256899 Z"></path>
        </g>
    </g>
</svg>