<?xml version="1.0" encoding="UTF-8"?>
<svg width="24px" height="24px" viewBox="0 0 24 24" version="1.1" xmlns="http://www.w3.org/2000/svg" xmlns:xlink="http://www.w3.org/1999/xlink">
    <!-- Generator: Sketch 57.1 (83088) - https://sketch.com -->
    <title>Photo</title>
    <desc>Created with Sketch.</desc>
    <g id="Photo" stroke="none" stroke-width="1" fill="none" fill-rule="evenodd">
        <g fill="#333333" id="Group-9">
            <g transform="translate(1.000000, 2.000000)">
                <path d="M2.17224876,1.99612048 L5.87094258,1.99612048 L6.28190856,0.880641388 C6.45803684,0.352256555 6.92771225,-4.97379915e-14 7.51480651,-4.97379915e-14 L14.2076811,-4.97379915e-14 C14.7947753,-4.97379915e-14 15.2644507,0.352256555 15.440579,0.880641388 L15.851545,1.99612048 L19.5502388,1.99612048 C20.7831367,1.99612048 21.7224876,2.93547129 21.7224876,4.16836923 L21.7224876,17.2018618 C21.7224876,18.3760503 20.7831367,19.3741105 19.5502388,19.3741105 L2.17224876,19.3741105 C0.998060239,19.3741105 -3.90798505e-14,18.3760503 -3.90798505e-14,17.2018618 L-3.90798505e-14,4.16836923 C-3.90798505e-14,2.93547129 0.998060239,1.99612048 2.17224876,1.99612048 Z M10.8612438,4.9903012 C14.0315528,4.9903012 16.5560581,7.51480651 16.5560581,10.6851155 C16.5560581,13.7967151 14.0315528,16.3799298 10.8612438,16.3799298 C7.69093478,16.3799298 5.16642947,13.7967151 5.16642947,10.6851155 C5.16642947,7.51480651 7.69093478,4.9903012 10.8612438,4.9903012 Z" id="Shape"></path>
                <path d="M10.6399844,7 C12.6948143,7 14.3386782,8.64386392 14.3386782,10.6986938 C14.3386782,12.6948143 12.6948143,14.3386782 10.6399844,14.3386782 C8.64386392,14.3386782 7,12.6948143 7,10.6986938 C7,8.64386392 8.64386392,7 10.6399844,7 Z" id="Path"></path>
            </g>
        </g>
    </g>
</svg>