<svg xmlns="http://www.w3.org/2000/svg" width="147" height="112" viewBox="0 0 147 112">
    <path fill="#FF671D" fill-rule="nonzero" d="M147 82.743c0 8.838-3.007 15.924-9.02 21.257-6.014 5.333-13.492 8-22.436 8-11.41 0-20.353-3.58-26.83-10.743C82.238 94.095 79 84.571 79 72.686c0-12.19 1.927-22.553 5.782-31.086 3.855-8.533 8.481-15.619 13.878-21.257 5.397-5.638 11.025-10.057 16.884-13.257 5.86-3.2 10.948-5.562 15.266-7.086l14.802 24.686c-6.168 2.438-11.41 6.323-15.728 11.657-4.317 5.333-6.784 11.047-7.401 17.143 6.168 0 11.796 2.666 16.884 8C144.456 66.819 147 73.905 147 82.743zm-79 0c0 8.838-3.007 15.924-9.02 21.257-6.014 5.333-13.492 8-22.436 8-11.41 0-20.353-3.58-26.83-10.743C3.238 94.095 0 84.571 0 72.686 0 60.496 1.927 50.133 5.782 41.6c3.855-8.533 8.481-15.619 13.878-21.257 5.397-5.638 11.025-10.057 16.884-13.257C42.404 3.886 47.492 1.524 51.81 0l14.802 24.686c-6.168 2.438-11.41 6.323-15.728 11.657-4.317 5.333-6.784 11.047-7.401 17.143 6.168 0 11.796 2.666 16.884 8C65.456 66.819 68 73.905 68 82.743z" opacity=".05"/>
</svg>
