<?xml version="1.0" encoding="UTF-8"?>
<svg width="24px" height="24px" viewBox="0 0 24 24" version="1.1" xmlns="http://www.w3.org/2000/svg" xmlns:xlink="http://www.w3.org/1999/xlink">
    <!-- Generator: Sketch 57.1 (83088) - https://sketch.com -->
    <title>question</title>
    <desc>Created with Sketch.</desc>
    <g id="question" stroke="none" stroke-width="1" fill="none" fill-rule="evenodd">
        <g fill="#60269E" fill-rule="nonzero" id="Path_248">
            <path d="M12.5,2 C7.80557963,2 4,5.80557963 4,10.5 C4,15.1944204 7.80557963,19 12.5,19 L13,19 L13,22 C17.86,19.66 21,15 21,10.5 C20.9966908,5.80695104 17.193049,2.00330924 12.5,2 L12.5,2 Z M13.5,16.5 L11.5,16.5 L11.5,14.5 L13.5,14.5 L13.5,16.5 Z M13.9,11.72 C13.887816,11.7352549 13.8777266,11.7520706 13.87,11.77 C13.82,11.85 13.77,11.93 13.73,12.01 C13.7107223,12.044224 13.6972084,12.0813872 13.69,12.12 C13.6589855,12.1882654 13.6322668,12.2584021 13.61,12.33 C13.5397076,12.5496736 13.5059258,12.7793901 13.51,13.01 L11.5,13.01 C11.4959554,12.5687045 11.5634987,12.1296731 11.7,11.71 C11.6986768,11.6990075 11.702346,11.6880001 11.71,11.68 C11.72,11.64 11.75,11.62 11.76,11.58 C11.8171122,11.4257684 11.890882,11.2782287 11.98,11.14 C12.01,11.09 12.05,11.04 12.08,10.99 C12.1043331,10.9484925 12.1310443,10.9084257 12.16,10.87 L12.17,10.88 C13.01,9.78 14.38,9.44 14.49,8.2 C14.5648675,7.19959911 13.8977495,6.29452821 12.92,6.07 C11.941038,5.86094787 10.9583001,6.40786286 10.62,7.35 C10.488255,7.72702371 10.1390945,7.98492639 9.74,8 L9.54,8 C9.25391369,7.99685674 8.98572688,7.86022236 8.81500808,7.63063502 C8.64428929,7.40104767 8.59064834,7.10487919 8.67,6.83 C9.24847963,4.92859045 11.1352671,3.74029768 13.1,4.04 C14.8064307,4.32652858 16.1434714,5.66356934 16.43,7.37 C16.87,9.81 14.8,10.4 13.9,11.72 Z"></path>
        </g>
    </g>
</svg>