<?xml version="1.0" encoding="UTF-8"?>
<svg width="24px" height="24px" viewBox="0 0 24 24" version="1.1" xmlns="http://www.w3.org/2000/svg" xmlns:xlink="http://www.w3.org/1999/xlink">
    <!-- Generator: Sketch 57.1 (83088) - https://sketch.com -->
    <title>Glyphs/Search Bar/Share</title>
    <desc>Created with Sketch.</desc>
    <g id="Glyphs/Search-Bar/Share" stroke="none" stroke-width="1" fill="none" fill-rule="evenodd">
        <path d="M21.1222403,10.3863594 L13.3587634,4.1994655 C13.0809916,3.97957041 12.7019197,3.93792954 12.3830369,4.09228238 C12.0641541,4.24663522 11.8616547,4.56978134 11.8618058,4.92405668 L11.8618058,7.88612171 C8.97298354,8.02955572 6.31429457,9.50550914 4.66484324,11.8814674 C3.01539192,14.2574256 2.56196609,17.2643294 3.43743803,20.0210333 C3.49982127,20.219405 3.68335493,20.3546403 3.89130283,20.35546 L3.89130283,20.35546 C4.09925073,20.3546403 4.2827844,20.219405 4.34516763,20.0210333 C5.40677487,16.7132521 8.38667975,14.3937927 11.8538432,14.1765286 L11.8538432,17.305807 C11.8536922,17.6600824 12.0561916,17.9832285 12.3750744,18.1375813 C12.6939572,18.2919342 13.073029,18.2502933 13.3508008,18.0303982 L21.1222403,11.8275792 C21.3408684,11.652277 21.4680893,11.3871998 21.4680893,11.1069693 C21.4680893,10.8267388 21.3408684,10.5616617 21.1222403,10.3863594 L21.1222403,10.3863594 Z M12.8173106,17.305807 L12.8173106,13.6828511 C12.8173106,13.4189958 12.6034136,13.2050987 12.3395582,13.2050987 C8.8400618,13.2228204 5.63883585,15.1791252 4.02666602,18.2851995 C3.72027081,15.8970745 4.4552974,13.4924781 6.04455107,11.6838069 C7.63380474,9.87513566 9.92389801,8.83695422 12.3315957,8.83366402 L12.3315957,8.83366402 C12.595451,8.83366402 12.8093481,8.61976697 12.8093481,8.35591159 L12.7536103,4.92405668 L20.5250498,11.0791004 L12.8173106,17.305807 Z" id="Shape" fill="#333333" fill-rule="nonzero"></path>
    </g>
</svg>