<?xml version="1.0" encoding="UTF-8"?>
<svg width="24px" height="24px" viewBox="0 0 24 24" version="1.1" xmlns="http://www.w3.org/2000/svg" xmlns:xlink="http://www.w3.org/1999/xlink">
    <!-- Generator: Sketch 57.1 (83088) - https://sketch.com -->
    <title>share_01</title>
    <desc>Created with Sketch.</desc>
    <g id="share_01" stroke="none" stroke-width="1" fill="none" fill-rule="evenodd">
        <g id="Group" transform="translate(1.000000, 2.000000)" fill="#333333" fill-rule="nonzero">
            <path d="M8.08816092,8.92087356 C10.5311724,8.92087356 12.5187586,6.93151724 12.5187586,4.48597701 C12.5187586,2.04043678 10.5311724,0.0510804598 8.08816092,0.0510804598 C5.64565517,0.0510804598 3.65857471,2.04043678 3.65857471,4.48597701 C3.65857471,6.93151724 5.64590805,8.92087356 8.08816092,8.92087356 Z M8.08816092,1.56857471 C9.69466667,1.56857471 11.0015172,2.87744828 11.0015172,4.48622989 C11.0015172,6.09501149 9.69466667,7.40388506 8.08816092,7.40388506 C6.48241379,7.40388506 5.17581609,6.09501149 5.17581609,4.48622989 C5.17581609,2.87744828 6.48241379,1.56857471 8.08816092,1.56857471 Z" id="Shape"></path>
            <path d="M18.2463448,12.3609655 L14.7043448,12.3609655 C13.6531494,11.178023 12.1217471,10.4310345 10.4183908,10.4310345 L5.7591954,10.4310345 C2.59701149,10.4310345 0.0242758621,13.0035172 0.0242758621,16.1654483 L0.0242758621,17.9178621 C0.0242758621,18.3368736 0.363885057,18.6764828 0.782896552,18.6764828 L11.1926897,18.6764828 L15.3946897,18.6764828 L20.9897701,18.6764828 C21.4087816,18.6764828 21.7483908,18.3368736 21.7483908,17.9178621 L21.7483908,15.8635172 C21.7483908,13.7355862 20.3737701,12.3609655 18.2463448,12.3609655 Z M14.636069,17.1589885 L11.1926897,17.1589885 L1.54151724,17.1589885 L1.54151724,16.1651954 C1.54151724,13.8397701 3.43351724,11.948023 5.7591954,11.948023 L10.4183908,11.948023 C12.744069,11.948023 14.636069,13.8397701 14.636069,16.1651954 L14.636069,17.1589885 Z M20.2311494,17.1589885 L16.1533103,17.1589885 L16.1533103,16.1651954 C16.1533103,15.3524598 15.9823678,14.5794253 15.6758851,13.8782069 L18.2463448,13.8782069 C19.5448506,13.8782069 20.2311494,14.5647586 20.2311494,15.8635172 L20.2311494,17.1589885 L20.2311494,17.1589885 Z" id="Shape"></path>
            <path d="M17.1187816,10.2972644 C18.8615862,10.2972644 20.2791954,8.87914943 20.2791954,7.13634483 C20.2791954,5.39354023 18.8615862,3.97542529 17.1187816,3.97542529 C15.3754713,3.97542529 13.9573563,5.39328736 13.9573563,7.13634483 C13.9573563,8.87914943 15.3757241,10.2972644 17.1187816,10.2972644 Z M17.1187816,5.49266667 C18.0248276,5.49266667 18.761954,6.23004598 18.761954,7.13634483 C18.761954,8.04264368 18.0248276,8.78002299 17.1187816,8.78002299 C16.2122299,8.78002299 15.4745977,8.04264368 15.4745977,7.13634483 C15.4745977,6.2297931 16.2122299,5.49266667 17.1187816,5.49266667 Z" id="Shape"></path>
        </g>
    </g>
</svg>