<?xml version="1.0" encoding="UTF-8"?>
<svg width="28px" height="16px" viewBox="0 0 28 16" version="1.1" xmlns="http://www.w3.org/2000/svg" xmlns:xlink="http://www.w3.org/1999/xlink">
    <!-- Generator: Sketch 57.1 (83088) - https://sketch.com -->
    <title>video</title>
    <desc>Created with Sketch.</desc>
    <g id="Web" stroke="none" stroke-width="1" fill="none" fill-rule="evenodd">
        <g id="KK_home_v6" transform="translate(-498.000000, -308.000000)" fill="#333333">
            <g id="main" transform="translate(415.000000, 109.000000)">
                <g id="Group-3">
                    <g id="Group-4" transform="translate(0.000000, 172.000000)">
                        <g id="video" transform="translate(83.000000, 27.000000)">
                            <path d="M18.2857143,2.94834304 C18.2857143,1.40766174 17.0057143,0.163265306 15.4209524,0.163265306 L2.83428571,0.163265306 C1.28,0.163265306 0,1.40766174 0,2.91871456 L0,13.0812854 C0,14.5923383 1.28,15.8367347 2.83428571,15.8367347 L15.3904762,15.8367347 C16.9752381,15.8367347 18.2552381,14.5923383 18.2552381,13.051657 L18.2552381,2.94834304 L18.2857143,2.94834304 Z" id="Path"></path>
                            <path d="M26.3639584,1.76875665 C25.683789,1.36959812 24.8853292,1.36959812 24.2051598,1.76875665 L19.5918367,4.04088977 L19.5918367,11.9626512 L24.2051598,14.2347843 C24.7078937,14.5418293 25.2993454,14.6032383 25.8316519,14.4497158 C26.393531,14.2961933 26.8371198,13.9277393 27.1328456,13.4057628 C27.3102811,13.0680132 27.4285714,12.6688547 27.4285714,12.3004007 L27.4285714,3.73384475 C27.4285714,2.93552771 27.0145553,2.16791517 26.3639584,1.76875665 Z" id="Path" fill-rule="nonzero"></path>
                        </g>
                    </g>
                </g>
            </g>
        </g>
    </g>
</svg>