<svg xmlns="http://www.w3.org/2000/svg" xmlns:xlink="http://www.w3.org/1999/xlink" width="112" height="112" viewBox="0 0 112 112">
    <defs>
        <circle id="a" cx="56" cy="56" r="56"/>
    </defs>
    <g fill="none" fill-rule="evenodd">
        <mask id="b" fill="#fff">
            <use xlink:href="#a"/>
        </mask>
        <use fill="#F6F6F6" xlink:href="#a"/>
        <g fill="#8D959D" mask="url(#b)">
            <g transform="translate(-8.145 12.727)">
                <path fill-rule="nonzero" d="M2.613 79.535a1.018 1.018 0 1 1 0-2.036h123.71a1.018 1.018 0 0 1 0 2.036H2.612z"/>
                <path fill-rule="nonzero" d="M39.478 25.637v52.079a1.018 1.018 0 1 1-2.036 0V24.619c0-.562.456-1.018 1.018-1.018h51.968c.562 0 1.018.456 1.018 1.018v53.097a1.018 1.018 0 1 1-2.036 0V25.638H39.478z"/>
                <path fill-rule="nonzero" d="M45.452 18.478v6.141a1.018 1.018 0 0 1-2.037 0V17.46c0-.562.456-1.018 1.018-1.018h40.62c.561 0 1.017.456 1.017 1.018v7.16a1.018 1.018 0 1 1-2.036 0v-6.142H45.452z"/>
                <path fill-rule="nonzero" d="M50.828 9.53v7.334a1.018 1.018 0 0 1-2.037 0V8.51c0-.562.456-1.018 1.018-1.018h29.682c.563 0 1.019.456 1.019 1.018v8.353a1.018 1.018 0 0 1-2.037 0V9.53H50.828z"/>
                <path fill-rule="nonzero" d="M56.864 8.943a1.018 1.018 0 0 1-1.421-1.459l5.816-5.668c.19-.185.445-.289.71-.289h5.085c.252 0 .494.093.681.262l6.228 5.604a1.018 1.018 0 0 1-1.362 1.514l-5.937-5.343h-4.28l-5.52 5.379zM35.32 34.09a1.018 1.018 0 1 1 0-2.036h58.095a1.018 1.018 0 1 1 0 2.036H35.32zM36.652 51.988a1.018 1.018 0 1 1 0-2.036h19.43a1.018 1.018 0 1 1 0 2.036h-19.43zm36.637 0a1.018 1.018 0 1 1 0-2.036h18.528a1.018 1.018 0 1 1 0 2.036H73.29zM38.61 61.533a1.018 1.018 0 1 1 0-2.036h15.911a1.018 1.018 0 1 1 0 2.036h-15.91zm36.588 0a1.018 1.018 0 1 1 0-2.036h14.931a1.018 1.018 0 1 1 0 2.036H75.198z"/>
                <path fill-rule="nonzero" d="M73.88 48.496a9.136 9.136 0 1 0-18.274 0v28.798H73.88V48.496zm2.036 0v29.816c0 .563-.456 1.019-1.019 1.019H54.588a1.018 1.018 0 0 1-1.018-1.019V48.496c0-6.171 5.002-11.173 11.173-11.173 6.17 0 11.173 5.002 11.173 11.173zM81.767 45.922a4.301 4.301 0 0 1-4.304-4.3c0-2.375 1.927-4.3 4.304-4.3a4.301 4.301 0 0 1 4.303 4.3c0 2.375-1.927 4.3-4.303 4.3zm0-2.037a2.265 2.265 0 0 0 2.267-2.263 2.265 2.265 0 0 0-2.267-2.263 2.265 2.265 0 0 0-2.267 2.263 2.265 2.265 0 0 0 2.267 2.263zM47.121 45.922a4.301 4.301 0 0 1-4.303-4.3c0-2.375 1.927-4.3 4.303-4.3a4.301 4.301 0 0 1 4.304 4.3c0 2.375-1.927 4.3-4.304 4.3zm0-2.037a2.265 2.265 0 0 0 2.268-2.263 2.265 2.265 0 0 0-2.268-2.263 2.265 2.265 0 0 0-2.267 2.263 2.265 2.265 0 0 0 2.267 2.263z"/>
                <ellipse cx="54.289" cy="12.866" rx="2.091" ry="2.088"/>
                <ellipse cx="74.599" cy="12.866" rx="2.091" ry="2.088"/>
                <path d="M44.036 66.945h5.091v5.091h-5.091zM80.182 66.945h5.091v5.091h-5.091z"/>
            </g>
        </g>
    </g>
</svg>
