<svg xmlns="http://www.w3.org/2000/svg" xmlns:xlink="http://www.w3.org/1999/xlink" width="112" height="112" viewBox="0 0 112 112">
    <defs>
        <circle id="a" cx="56" cy="56" r="56"/>
    </defs>
    <g fill="none" fill-rule="evenodd">
        <mask id="b" fill="#fff">
            <use xlink:href="#a"/>
        </mask>
        <use fill="#F6F6F6" xlink:href="#a"/>
        <g mask="url(#b)">
            <g fill="#8D959D" transform="translate(-16.8 15.782)">
                <ellipse cx="59.671" cy="51.209" rx="2.246" ry="2.246"/>
                <ellipse cx="84.371" cy="51.209" rx="2.246" ry="2.246"/>
                <path fill-rule="nonzero" d="M62.935 63.483v13.511h18.921V63.363a12.181 12.181 0 0 0-9.4-11.86 12.297 12.297 0 0 0-9.521 11.98zm9.737-14.018a14.217 14.217 0 0 1 11.22 13.898v14.65c0 .562-.455 1.018-1.018 1.018H61.916a1.018 1.018 0 0 1-1.018-1.018v-14.53c0-6.765 4.73-12.61 11.347-14.019h.427zM107.845 65.218V76.94h10.688V65.145a7.137 7.137 0 0 0-5.308-6.899 7.207 7.207 0 0 0-5.38 6.972zm5.61-9.012a9.174 9.174 0 0 1 7.114 8.94v12.812c0 .563-.456 1.019-1.018 1.019h-12.724a1.018 1.018 0 0 1-1.019-1.019v-12.74A9.244 9.244 0 0 1 113 56.205h.455zM25.51 65.218v11.778h10.688v-11.85a7.137 7.137 0 0 0-5.308-6.9 7.207 7.207 0 0 0-5.38 6.972zm5.61-9.012a9.174 9.174 0 0 1 7.114 8.94v12.868c0 .562-.456 1.018-1.018 1.018H24.49a1.018 1.018 0 0 1-1.018-1.018V65.218a9.244 9.244 0 0 1 7.192-9.013h.455z"/>
                <path fill-rule="nonzero" d="M2.549 79.124a1.018 1.018 0 1 1 0-2.036h137.724a1.018 1.018 0 0 1 0 2.036H2.549z"/>
                <path fill-rule="nonzero" d="M16.22 30.827v47.096a1.018 1.018 0 1 1-2.036 0V29.809c0-.563.456-1.019 1.018-1.019h28.843a1.018 1.018 0 0 1 0 2.037H16.22zM128.62 30.827V77.93a1.018 1.018 0 1 0 2.036 0V29.809c0-.563-.456-1.019-1.019-1.019h-29.585a1.018 1.018 0 0 0 0 2.037h28.567z"/>
                <path fill-rule="nonzero" d="M45.72 76.95h6.508V11.798h-6.509v65.15zM44.7 9.762h8.546c.562 0 1.018.455 1.018 1.018v67.186c0 .563-.456 1.019-1.018 1.019H44.7a1.018 1.018 0 0 1-1.018-1.019V10.781c0-.563.456-1.018 1.018-1.018z"/>
                <path fill-rule="nonzero" d="M46.326 6.238c-.366.668-.581 1.853-.61 3.525h6.526c-.01-1.67-.2-2.867-.543-3.566-.353-.72-1.189-1.55-2.513-2.45-1.518.935-2.473 1.783-2.86 2.491zm3.43-4.553c1.916 1.215 3.176 2.401 3.772 3.616.586 1.197.815 3.019.735 5.512-.017.55-.468.986-1.017.986H44.7a1.018 1.018 0 0 1-1.018-.995c-.057-2.53.21-4.363.857-5.544.65-1.187 2.035-2.362 4.16-3.595.328-.19.735-.183 1.056.02zM92.733 6.238c-.366.668-.581 1.853-.61 3.525h6.526c-.01-1.67-.2-2.867-.543-3.566-.353-.72-1.189-1.55-2.513-2.45-1.518.935-2.473 1.783-2.86 2.491zm3.43-4.553c1.916 1.215 3.176 2.401 3.772 3.616.586 1.197.815 3.019.736 5.512-.018.55-.468.986-1.018.986h-8.545a1.018 1.018 0 0 1-1.018-.995c-.057-2.53.21-4.363.857-5.544.65-1.187 2.035-2.362 4.16-3.595.328-.19.735-.183 1.056.02z"/>
                <path fill-rule="nonzero" d="M92.126 77.015h6.509V11.799h-6.509v65.216zM91.108 9.763h8.545c.562 0 1.018.455 1.018 1.018v67.252c0 .563-.456 1.018-1.018 1.018h-8.545a1.018 1.018 0 0 1-1.018-1.018V10.781c0-.563.456-1.018 1.018-1.018z"/>
                <path fill-rule="nonzero" d="M16.924 37.972a1.018 1.018 0 0 1 0-2.036h111.083a1.018 1.018 0 1 1 0 2.036H16.924zM53.476 28.271a1.018 1.018 0 1 1 0-2.036h37.425a1.018 1.018 0 1 1 0 2.036H53.476zM45.243 20.785a1.018 1.018 0 1 1 0-2.037h53.892a1.018 1.018 0 0 1 0 2.037H45.243z"/>
                <path fill-rule="nonzero" d="M59.35 15.363a1.018 1.018 0 0 1 2.037 0v3.695a1.018 1.018 0 1 1-2.036 0v-3.695zM67.223 15.363a1.018 1.018 0 1 1 2.036 0v3.695a1.018 1.018 0 0 1-2.036 0v-3.695zM75.095 15.363a1.018 1.018 0 1 1 2.036 0v3.695a1.018 1.018 0 1 1-2.036 0v-3.695zM82.966 15.363a1.018 1.018 0 1 1 2.037 0v3.695a1.018 1.018 0 1 1-2.037 0v-3.695zM44.386 49.22a1.018 1.018 0 1 1 0 2.036H15.803c-.306 0-.595-.138-.789-.375l-4.657-5.709a1.018 1.018 0 0 1 .79-1.661h122.492c.875 0 1.343 1.03.766 1.689l-5.003 5.709c-.194.22-.473.347-.766.347H99.867a1.018 1.018 0 1 1 0-2.037h28.307l3.219-3.672H13.29l2.996 3.672h28.099z"/>
                <path fill-rule="nonzero" d="M60.212 37.367a1.018 1.018 0 1 1 2.037 0v7.045a1.018 1.018 0 0 1-2.037 0v-7.045zM71.44 37.243a1.018 1.018 0 0 1 2.036 0v7.182a1.018 1.018 0 1 1-2.036 0v-7.182zM81.919 37.354a1.018 1.018 0 0 1 2.036 0v7.071a1.018 1.018 0 1 1-2.036 0v-7.071z"/>
            </g>
        </g>
    </g>
</svg>
