<svg xmlns="http://www.w3.org/2000/svg" xmlns:xlink="http://www.w3.org/1999/xlink" width="72" height="72" viewBox="0 0 72 72">
    <defs>
        <path id="a" d="M.009.11h29.94v19.084H.009z"/>
    </defs>
    <g fill="none" fill-rule="evenodd">
        <circle cx="36" cy="36" r="30" fill="#FFF"/>
        <path fill="#97753C" fill-rule="nonzero" d="M25.356 24.957h-.002c-.29 0-.567.114-.768.316-.21.207-.326.485-.325.776v16.377c0 .6.494 1.09 1.097 1.092 2.557.007 6.839.537 9.788 3.612V29.99a1.039 1.039 0 0 0-.149-.554c-2.423-3.883-7.08-4.475-9.641-4.48zm22.383 17.47V26.048a1.086 1.086 0 0 0-.322-.776 1.084 1.084 0 0 0-.769-.316h-.004c-2.559.004-7.216.596-9.641 4.48-.1.167-.152.358-.15.553v17.14c2.952-3.075 7.232-3.605 9.789-3.612.606 0 1.097-.491 1.097-1.09v-.002z"/>
        <g transform="translate(21.652 28.87)">
            <mask id="b" fill="#fff">
                <use xlink:href="#a"/>
            </mask>
            <path fill="#97753C" fill-rule="nonzero" d="M28.877.11h-.776v13.372a2.733 2.733 0 0 1-2.734 2.721c-2.115.006-5.603.418-8.074 2.744 4.273-1.04 8.777-.363 11.344.22a1.071 1.071 0 0 0 1.312-1.042V1.18c.006-.582-.474-1.06-1.072-1.066V.11zM1.85 13.483V.11h-.778C.48.11 0 .589 0 1.175v16.952a1.071 1.071 0 0 0 1.311 1.04c2.568-.585 7.072-1.26 11.347-.22-2.47-2.326-5.962-2.738-8.077-2.744a2.733 2.733 0 0 1-2.732-2.721z" mask="url(#b)"/>
        </g>
    </g>
</svg>
