<svg xmlns="http://www.w3.org/2000/svg" width="72" height="72" viewBox="0 0 72 72">
    <g fill="none" fill-rule="evenodd" transform="translate(6 6)">
        <circle cx="30" cy="30" r="30" fill="#FFF"/>
        <path fill="#FAD169" d="M33.853 35.093h2.149c5.15 0 9.4-3.94 9.916-8.973a9.098 9.098 0 0 0 .225-2.013c0-5.022-4.067-9.107-9.067-9.107h-2.582c-.638.005-1.586.449-1.586 1.648v8.01H22.046l-1.135-4.243c-.274-1.022-1.274-1.793-2.327-1.793h-3.295c-.712 0-1.289.579-1.289 1.293 0 .715.577 1.294 1.29 1.294h3.164l1.52 5.687c.018.068.042.133.07.195.933 4.608 5.016 8.002 9.77 8.002h1.46v4.398h-.893a4.23 4.23 0 0 0-4.025-2.96c-2.327 0-4.22 1.9-4.22 4.235 0 2.334 1.893 4.234 4.22 4.234 1.87 0 3.46-1.228 4.012-2.922h4.277A4.228 4.228 0 0 0 38.657 45c2.327 0 4.22-1.9 4.22-4.234 0-2.336-1.893-4.235-4.22-4.235a4.23 4.23 0 0 0-4.025 2.96h-.78v-4.398zm-7.497 7.32a1.647 1.647 0 1 1 0-3.295c.906 0 1.642.74 1.642 1.648 0 .908-.736 1.647-1.642 1.647zm12.3-3.295c.906 0 1.643.739 1.643 1.648 0 .908-.737 1.647-1.642 1.647a1.647 1.647 0 0 1 0-3.295z"/>
    </g>
</svg>
