<svg xmlns="http://www.w3.org/2000/svg" width="72" height="72" viewBox="0 0 72 72">
    <g fill="none" fill-rule="evenodd" transform="translate(6 6)">
        <circle cx="30" cy="30" r="30" fill="#FFF"/>
        <g fill="#2B7D57">
            <path d="M22.005 20.308l11.95-3.158-.633-1.238c-.414-.804-1.424-1.137-2.256-.736L20.37 20.308h1.636zM37.664 17.242c-.148 0-.296.02-.445.058l-2.807.743-8.573 2.265H39.81l-.525-1.864c-.202-.727-.882-1.202-1.622-1.202zM41.565 21.448H16.686c-.531 0-1.006.238-1.316.612a1.612 1.612 0 0 0-.37 1.017v18.151c0 .9.754 1.63 1.683 1.63h24.879c.929 0 1.683-.73 1.683-1.63v-4.545h-9.987c-1.58 0-2.862-1.241-2.862-2.77v-3.622c0-.75.31-1.43.812-1.93a2.869 2.869 0 0 1 2.046-.837h9.99v-4.447c.004-.9-.75-1.63-1.68-1.63z"/>
            <path d="M44.426 29.082a1.693 1.693 0 0 0-1.134-.427H33.258c-.93 0-1.683.73-1.683 1.629v3.626c0 .9.753 1.63 1.683 1.63h10.034c.192 0 .373-.033.545-.089.222-.071.42-.189.589-.338a1.6 1.6 0 0 0 .549-1.203v-3.626a1.6 1.6 0 0 0-.549-1.202zm-7.654 3.34c0 .449-.377.814-.842.814h-.559a.829.829 0 0 1-.841-.815v-.54a.79.79 0 0 1 .323-.64.868.868 0 0 1 .518-.175h.56c.464 0 .84.365.84.814v.541z"/>
        </g>
    </g>
</svg>
