<svg xmlns="http://www.w3.org/2000/svg" width="16" height="16" viewBox="0 0 16 16">
    <g fill="#333" fill-rule="nonzero" opacity=".5">
        <path d="M8 14.852a6.831 6.831 0 0 0 4.845-2.007A6.832 6.832 0 0 0 14.852 8a6.832 6.832 0 0 0-2.007-4.845A6.833 6.833 0 0 0 8 1.148a6.83 6.83 0 0 0-4.845 2.007A6.832 6.832 0 0 0 1.148 8a6.83 6.83 0 0 0 2.007 4.845A6.831 6.831 0 0 0 8 14.852zm5.63-1.221A7.94 7.94 0 0 1 8 15.963a7.939 7.939 0 0 1-5.63-2.332A7.938 7.938 0 0 1 .036 8c0-2.199.892-4.19 2.332-5.63A7.937 7.937 0 0 1 8 .036c2.199 0 4.19.892 5.63 2.332A7.939 7.939 0 0 1 15.964 8c0 2.199-.892 4.19-2.332 5.63z"/>
        <path d="M.592 8.548a.553.553 0 0 1 0-1.107l14.815-.058a.553.553 0 0 1 0 1.107L.592 8.548z"/>
        <path d="M7.418.592a.553.553 0 0 1 1.106 0l.058 14.815a.553.553 0 0 1-1.106 0L7.418.592z"/>
        <path d="M8 14.852c.796 0 1.55-.712 2.124-1.862.633-1.265 1.024-3.029 1.024-4.99 0-1.962-.391-3.726-1.024-4.991C9.55 1.859 8.796 1.147 8 1.147S6.45 1.86 5.876 3.01c-.633 1.265-1.024 3.029-1.024 4.99 0 1.962.391 3.726 1.024 4.991.575 1.15 1.328 1.862 2.124 1.862zm3.114-1.367C10.349 15.016 9.25 15.963 8 15.963c-1.25 0-2.349-.947-3.114-2.478C4.178 12.07 3.741 10.129 3.741 8c0-2.13.437-4.07 1.145-5.485C5.651.984 6.75.037 8 .037c1.25 0 2.349.947 3.114 2.478.708 1.415 1.145 3.356 1.145 5.485 0 2.13-.437 4.07-1.145 5.485z"/>
        <path d="M1.65 4.891a.553.553 0 0 1-.004-1.107l12.704-.057a.553.553 0 0 1 .004 1.106L1.65 4.891zM1.65 12.301a.553.553 0 0 1-.004-1.107l12.704-.057a.553.553 0 0 1 .004 1.106l-12.704.058z"/>
    </g>
</svg>
