<svg xmlns="http://www.w3.org/2000/svg" xmlns:xlink="http://www.w3.org/1999/xlink" width="72" height="72" viewBox="0 0 72 72">
    <defs>
        <path id="a" d="M.004.009h26.057v18.174H.004z"/>
        <path id="c" d="M.004.009h26.057v18.174H.004z"/>
        <path id="e" d="M.004.013h19.548v19.552H.004z"/>
    </defs>
    <g fill="none" fill-rule="evenodd" transform="translate(6 6)">
        <circle cx="30" cy="30" r="30" fill="#FFF"/>
        <g transform="translate(13.348 17.26)">
            <mask id="b" fill="#fff">
                <use xlink:href="#a"/>
            </mask>
            <path fill="#9CAFA6" d="M10.74 9.402h4.582V7.94h-4.583z" mask="url(#b)"/>
        </g>
        <g transform="translate(13.348 17.26)">
            <mask id="d" fill="#fff">
                <use xlink:href="#c"/>
            </mask>
            <path fill="#9CAFA6" d="M21.143 9.402h-4.295v.733a.748.748 0 0 1-.761.73H9.978a.748.748 0 0 1-.765-.73v-.733H4.917a2.283 2.283 0 0 1-2.174-1.5L0 .01v15.978c0 1.21 1.028 2.196 2.291 2.196H23.77c1.265 0 2.29-.985 2.29-2.196V.011l-2.745 7.891a2.283 2.283 0 0 1-2.172 1.502v-.002z" mask="url(#d)"/>
        </g>
        <path fill="#9CAFA6" fill-rule="nonzero" d="M29.453 13.35h-6.12c-1.267 0-2.295.987-2.295 2.201v.733h-6.386l2.886 8.302c.11.304.402.505.725.501h4.304v-.732c0-.408.342-.735.764-.735h6.12c.423 0 .765.327.765.735v.732h4.303a.762.762 0 0 0 .726-.501l2.885-8.302h-6.383v-.735c0-1.212-1.03-2.201-2.296-2.201l.002.002zm-6.886 2.934v-.735c0-.403.344-.732.764-.732h6.12c.423 0 .765.327.765.732v.735h-7.65z"/>
        <g>
            <g transform="translate(26.391 26.391)">
                <mask id="f" fill="#fff">
                    <use xlink:href="#e"/>
                </mask>
                <path fill="#9CAFA6" stroke="#FFF" stroke-width=".6" d="M9.776 2.187a7.609 7.609 0 0 0-7.602 7.602 7.609 7.609 0 0 0 7.602 7.602 7.609 7.609 0 0 0 7.602-7.602 7.61 7.61 0 0 0-7.602-7.602z" mask="url(#f)"/>
            </g>
            <path fill="#FFF" fill-rule="nonzero" d="M34.507 34.485a.822.822 0 1 1-1.644 0 .822.822 0 0 1 1.644 0zm5.084 0a.822.822 0 1 1-1.643 0 .822.822 0 0 1 1.643 0zm-3.439 5.906a4.77 4.77 0 0 0 3.987-2.163l-.691-.445a3.94 3.94 0 0 1-3.733 1.76 3.941 3.941 0 0 1-2.828-1.76l-.691.445a4.772 4.772 0 0 0 3.956 2.163z"/>
        </g>
    </g>
</svg>
